Avara.ufo
<glyph name="exclam" format="1">
  <advance width="6"/>
  <unicode hex="0021"/>
  <outline>
    <contour>
      <point x="3" y="0" type="line"/>
      <point x="1" y="1" type="line"/>
      <point x="1" y="2" type="line"/>
      <point x="2" y="4" type="line"/>
      <point x="3" y="4" type="line"/>
      <point x="5" y="3" type="line"/>
      <point x="5" y="2" type="line"/>
      <point x="4" y="0" type="line"/>
    </contour>
    <contour>
      <point x="2" y="20" type="line"/>
      <point x="4" y="20" type="line"/>
      <point x="5" y="19" type="line"/>
      <point x="5" y="16" type="line"/>
      <point x="4" y="9" type="line"/>
      <point x="3" y="6" type="line"/>
      <point x="2" y="9" type="line"/>
      <point x="1" y="16" type="line"/>
      <point x="1" y="19" type="line"/>
    </contour>
  </outline>
</glyph>
<glyph name="ampersand" format="1">
  <advance width="760"/>
  <unicode hex="0026"/>
  <outline>
    <contour>
      <point x="240" y="400" type="line" smooth="no"/>
      <point x="200" y="360" type="line" smooth="no"/>
      <point x="160" y="320" type="line" smooth="no"/>
      <point x="120" y="200" type="line" smooth="no"/>
      <point x="168" y="80" type="line" smooth="no"/>
      <point x="280" y="40" type="line" smooth="no"/>
      <point x="360" y="80" type="line" smooth="no"/>
      <point x="440" y="160" type="line" smooth="no"/>
    </contour>
    <contour>
      <point x="280" y="760" type="line" smooth="no"/>
      <point x="200" y="720" type="line" smooth="no"/>
      <point x="160" y="640" type="line" smooth="no"/>
      <point x="200" y="560" type="line" smooth="no"/>
      <point x="280" y="480" type="line" smooth="no"/>
      <point x="360" y="560" type="line" smooth="no"/>
      <point x="400" y="640" type="line" smooth="no"/>
      <point x="360" y="720" type="line" smooth="no"/>
    </contour>
    <contour>
      <point x="680" y="400" type="line" smooth="no"/>
      <point x="600" y="320" type="line" smooth="no"/>
      <point x="520" y="200" type="line" smooth="no"/>
      <point x="600" y="40" type="line" smooth="no"/>
      <point x="600" y="0" type="line" smooth="no"/>
      <point x="560" y="0" type="line" smooth="no"/>
      <point x="480" y="120" type="line" smooth="no"/>
      <point x="400" y="40" type="line" smooth="no"/>
      <point x="320" y="0" type="line" smooth="no"/>
      <point x="160" y="0" type="line" smooth="no"/>
      <point x="40" y="80" type="line" smooth="no"/>
      <point x="0" y="160" type="line" smooth="no"/>
      <point x="0" y="240" type="line" smooth="no"/>
      <point x="80" y="360" type="line" smooth="no"/>
      <point x="200" y="440" type="line" smooth="no"/>
      <point x="120" y="520" type="line" smooth="no"/>
      <point x="80" y="600" type="line" smooth="no"/>
      <point x="80" y="680" type="line" smooth="no"/>
      <point x="160" y="760" type="line" smooth="no"/>
      <point x="240" y="800" type="line" smooth="no"/>
      <point x="320" y="800" type="line" smooth="no"/>
      <point x="440" y="760" type="line" smooth="no"/>
      <point x="480" y="680" type="line" smooth="no"/>
      <point x="480" y="600" type="line" smooth="no"/>
      <point x="440" y="520" type="line" smooth="no"/>
      <point x="330" y="440" type="line" smooth="no"/>
      <point x="480" y="240" type="line" smooth="no"/>
      <point x="520" y="320" type="line" smooth="no"/>
      <point x="480" y="400" type="line" smooth="no"/>
    </contour>
  </outline>
</glyph>
<glyph name="quotesingle" format="1">
  <advance width="200"/>
  <unicode hex="0027"/>
  <outline>
    <contour>
      <point x="40" y="560" type="line" smooth="no"/>
      <point x="40" y="760" type="line" smooth="no"/>
      <point x="80" y="800" type="line" smooth="no"/>
      <point x="120" y="800" type="line" smooth="no"/>
      <point x="160" y="760" type="line" smooth="no"/>
      <point x="160" y="720" type="line" smooth="no"/>
      <point x="80" y="600" type="line" smooth="no"/>
    </contour>
  </outline>
</glyph>
<glyph name="plus" format="1">
  <advance width="15"/>
  <unicode hex="002B"/>
  <outline>
    <contour>
      <point x="0" y="9" type="line"/>
      <point x="6" y="9" type="line"/>
      <point x="6" y="15" type="line"/>
      <point x="8" y="15" type="line"/>
      <point x="8" y="9" type="line"/>
      <point x="14" y="9" type="line"/>
      <point x="14" y="7" type="line"/>
      <point x="8" y="7" type="line"/>
      <point x="8" y="1" type="line"/>
      <point x="6" y="1" type="line"/>
      <point x="6" y="7" type="line"/>
      <point x="0" y="7" type="line"/>
    </contour>
  </outline>
</glyph>
<glyph name="comma" format="1">
  <advance width="6"/>
  <unicode hex="002C"/>
  <outline>
    <contour>
      <point x="3" y="-3" type="line"/>
      <point x="0" y="-3" type="line"/>
      <point x="0" y="-2" type="line"/>
      <point x="2" y="-2" type="line"/>
      <point x="3" y="0" type="line"/>
      <point x="1" y="1" type="line"/>
      <point x="1" y="2" type="line"/>
      <point x="2" y="4" type="line"/>
      <point x="3" y="4" type="line"/>
      <point x="5" y="3" type="line"/>
      <point x="5" y="1" type="line"/>
    </contour>
  </outline>
</glyph>
<glyph name="hyphen" format="1">
  <advance width="7"/>
  <unicode hex="002D"/>
  <outline>
    <contour>
      <point x="0" y="9" type="line"/>
      <point x="6" y="9" type="line"/>
      <point x="6" y="6" type="line"/>
      <point x="0" y="6" type="line"/>
    </contour>
  </outline>
</glyph>
<glyph name="period" format="1">
  <advance width="5"/>
  <unicode hex="002E"/>
  <outline>
    <contour>
      <point x="2" y="0" type="line"/>
      <point x="0" y="1" type="line"/>
      <point x="0" y="2" type="line"/>
      <point x="1" y="4" type="line"/>
      <point x="2" y="4" type="line"/>
      <point x="4" y="3" type="line"/>
      <point x="4" y="2" type="line"/>
      <point x="3" y="0" type="line"/>
    </contour>
  </outline>
</glyph>
<glyph name="slash" format="1">
  <advance width="324"/>
  <unicode hex="002f"/>
  <outline>
    <contour>
      <point x="200" y="760" type="line" smooth="no"/>
      <point x="280" y="760" type="line" smooth="no"/>
      <point x="80" y="-80" type="line" smooth="no"/>
      <point x="0" y="-80" type="line" smooth="no"/>
    </contour>
  </outline>
</glyph>
<glyph name="zero" format="1">
  <advance width="20"/>
  <unicode hex="0030"/>
  <outline>
    <contour>
      <point x="14" y="14" type="line"/>
      <point x="12" y="18" type="line"/>
      <point x="10" y="19" type="line"/>
      <point x="8" y="18" type="line"/>
      <point x="6" y="14" type="line"/>
      <point x="6" y="6" type="line"/>
      <point x="8" y="2" type="line"/>
      <point x="10" y="1" type="line"/>
      <point x="12" y="2" type="line"/>
      <point x="14" y="6" type="line"/>
    </contour>
    <contour>
      <point x="15" y="2" type="line"/>
      <point x="11" y="0" type="line"/>
      <point x="9" y="0" type="line"/>
      <point x="5" y="2" type="line"/>
      <point x="3" y="5" type="line"/>
      <point x="2" y="10" type="line"/>
      <point x="3" y="15" type="line"/>
      <point x="5" y="18" type="line"/>
      <point x="9" y="20" type="line"/>
      <point x="11" y="20" type="line"/>
      <point x="15" y="18" type="line"/>
      <point x="17" y="15" type="line"/>
      <point x="18" y="10" type="line"/>
      <point x="17" y="5" type="line"/>
    </contour>
  </outline>
</glyph>
<glyph name="one" format="1">
  <advance width="320"/>
  <unicode hex="0031"/>
  <outline>
    <contour>
      <point x="120" y="760" type="line" smooth="no"/>
      <point x="200" y="800" type="line" smooth="no"/>
      <point x="200" y="80" type="line" smooth="no"/>
      <point x="280" y="0" type="line" smooth="no"/>
      <point x="0" y="0" type="line" smooth="no"/>
      <point x="80" y="80" type="line" smooth="no"/>
      <point x="80" y="600" type="line" smooth="no"/>
      <point x="0" y="600" type="line" smooth="no"/>
      <point x="0" y="640" type="line" smooth="no"/>
      <point x="80" y="680" type="line" smooth="no"/>
    </contour>
  </outline>
</glyph>
<glyph name="two" format="1">
  <advance width="560"/>
  <unicode hex="0032"/>
  <outline>
    <contour>
      <point x="120" y="680" type="line" smooth="no"/>
      <point x="200" y="720" type="line" smooth="no"/>
      <point x="240" y="720" type="line" smooth="no"/>
      <point x="320" y="680" type="line" smooth="no"/>
      <point x="360" y="600" type="line" smooth="no"/>
      <point x="320" y="480" type="line" smooth="no"/>
      <point x="40" y="160" type="line" smooth="no"/>
      <point x="0" y="40" type="line" smooth="no"/>
      <point x="0" y="0" type="line" smooth="no"/>
      <point x="480" y="0" type="line" smooth="no"/>
      <point x="520" y="160" type="line" smooth="no"/>
      <point x="480" y="160" type="line" smooth="no"/>
      <point x="400" y="80" type="line" smooth="no"/>
      <point x="80" y="80" type="line" smooth="no"/>
      <point x="120" y="160" type="line" smooth="no"/>
      <point x="320" y="320" type="line" smooth="no"/>
      <point x="440" y="440" type="line" smooth="no"/>
      <point x="480" y="520" type="line" smooth="no"/>
      <point x="480" y="680" type="line" smooth="no"/>
      <point x="400" y="760" type="line" smooth="no"/>
      <point x="320" y="800" type="line" smooth="no"/>
      <point x="200" y="800" type="line" smooth="no"/>
      <point x="80" y="760" type="line" smooth="no"/>
      <point x="0" y="640" type="line" smooth="no"/>
      <point x="40" y="600" type="line" smooth="no"/>
    </contour>
  </outline>
</glyph>
<glyph name="three" format="1">
  <advance width="560"/>
  <unicode hex="0033"/>
  <outline>
    <contour>
      <point x="360" y="440" type="line" smooth="no"/>
      <point x="480" y="520" type="line" smooth="no"/>
      <point x="480" y="680" type="line" smooth="no"/>
      <point x="400" y="760" type="line" smooth="no"/>
      <point x="320" y="800" type="line" smooth="no"/>
      <point x="200" y="800" type="line" smooth="no"/>
      <point x="80" y="760" type="line" smooth="no"/>
      <point x="0" y="640" type="line" smooth="no"/>
      <point x="40" y="600" type="line" smooth="no"/>
      <point x="120" y="680" type="line" smooth="no"/>
      <point x="200" y="720" type="line" smooth="no"/>
      <point x="240" y="720" type="line" smooth="no"/>
      <point x="320" y="680" type="line" smooth="no"/>
      <point x="360" y="600" type="line" smooth="no"/>
      <point x="320" y="482" type="line" smooth="no"/>
      <point x="240" y="442" type="line" smooth="no"/>
      <point x="160" y="480" type="line" smooth="no"/>
      <point x="120" y="360" type="line" smooth="no"/>
      <point x="240" y="400" type="line" smooth="no"/>
      <point x="320" y="360" type="line" smooth="no"/>
      <point x="400" y="280" type="line" smooth="no"/>
      <point x="400" y="200" type="line" smooth="no"/>
      <point x="360" y="80" type="line" smooth="no"/>
      <point x="280" y="44" type="line" smooth="no"/>
      <point x="200" y="44" type="line" smooth="no"/>
      <point x="120" y="120" type="line" smooth="no"/>
      <point x="120" y="200" type="line" smooth="no"/>
      <point x="0" y="160" type="line" smooth="no"/>
      <point x="40" y="80" type="line" smooth="no"/>
      <point x="160" y="0" type="line" smooth="no"/>
      <point x="280" y="0" type="line" smooth="no"/>
      <point x="440" y="40" type="line" smooth="no"/>
      <point x="520" y="160" type="line" smooth="no"/>
      <point x="520" y="320" type="line" smooth="no"/>
      <point x="440" y="400" type="line" smooth="no"/>
    </contour>
  </outline>
</glyph>
<glyph name="four" format="1">
  <advance width="600"/>
  <unicode hex="0034"/>
  <outline>
    <contour>
      <point x="360" y="280" type="line" smooth="no"/>
      <point x="120" y="280" type="line" smooth="no"/>
      <point x="360" y="680" type="line" smooth="no"/>
    </contour>
    <contour>
      <point x="320" y="800" type="line" smooth="no"/>
      <point x="0" y="280" type="line" smooth="no"/>
      <point x="40" y="200" type="line" smooth="no"/>
      <point x="320" y="200" type="line" smooth="no"/>
      <point x="320" y="80" type="line" smooth="no"/>
      <point x="240" y="0" type="line" smooth="no"/>
      <point x="520" y="0" type="line" smooth="no"/>
      <point x="440" y="80" type="line" smooth="no"/>
      <point x="440" y="200" type="line" smooth="no"/>
      <point x="560" y="200" type="line" smooth="no"/>
      <point x="560" y="280" type="line" smooth="no"/>
      <point x="440" y="280" type="line" smooth="no"/>
      <point x="440" y="840" type="line" smooth="no"/>
    </contour>
  </outline>
</glyph>
<glyph name="five" format="1">
  <advance width="601"/>
  <unicode hex="0035"/>
  <outline>
    <contour>
      <point x="440" y="680" type="line" smooth="no"/>
      <point x="160" y="680" type="line" smooth="no"/>
      <point x="120" y="476" type="line" smooth="no"/>
      <point x="200" y="520" type="line" smooth="no"/>
      <point x="360" y="518" type="line" smooth="no"/>
      <point x="440" y="476" type="line" smooth="no"/>
      <point x="520" y="358" type="line" smooth="no"/>
      <point x="520" y="160" type="line" smooth="no"/>
      <point x="440" y="40" type="line" smooth="no"/>
      <point x="280" y="0" type="line" smooth="no"/>
      <point x="160" y="0" type="line" smooth="no"/>
      <point x="40" y="80" type="line" smooth="no"/>
      <point x="0" y="160" type="line" smooth="no"/>
      <point x="120" y="200" type="line" smooth="no"/>
      <point x="120" y="120" type="line" smooth="no"/>
      <point x="200" y="40" type="line" smooth="no"/>
      <point x="280" y="40" type="line" smooth="no"/>
      <point x="360" y="80" type="line" smooth="no"/>
      <point x="400" y="200" type="line" smooth="no"/>
      <point x="400" y="358" type="line" smooth="no"/>
      <point x="320" y="470" type="line" smooth="no"/>
      <point x="200" y="474" type="line" smooth="no"/>
      <point x="40" y="360" type="line" smooth="no"/>
      <point x="120" y="800" type="line" smooth="no"/>
      <point x="480" y="800" type="line" smooth="no"/>
    </contour>
  </outline>
</glyph>
<glyph name="six" format="1">
  <advance width="601"/>
  <unicode hex="0036"/>
  <outline>
    <contour>
      <point x="120" y="320" type="line" smooth="no"/>
      <point x="80" y="240" type="line" smooth="no"/>
      <point x="80" y="200" type="line" smooth="no"/>
      <point x="120" y="120" type="line" smooth="no"/>
      <point x="200" y="40" type="line" smooth="no"/>
      <point x="280" y="40" type="line" smooth="no"/>
      <point x="360" y="120" type="line" smooth="no"/>
      <point x="400" y="200" type="line" smooth="no"/>
      <point x="400" y="240" type="line" smooth="no"/>
      <point x="360" y="360" type="line" smooth="no"/>
      <point x="240" y="400" type="line" smooth="no"/>
    </contour>
    <contour>
      <point x="80" y="360" type="line" smooth="no"/>
      <point x="200" y="440" type="line" smooth="no"/>
      <point x="360" y="480" type="line" smooth="no"/>
      <point x="480" y="400" type="line" smooth="no"/>
      <point x="520" y="240" type="line" smooth="no"/>
      <point x="480" y="160" type="line" smooth="no"/>
      <point x="400" y="40" type="line" smooth="no"/>
      <point x="280" y="0" type="line" smooth="no"/>
      <point x="160" y="0" type="line" smooth="no"/>
      <point x="40" y="80" type="line" smooth="no"/>
      <point x="0" y="200" type="line" smooth="no"/>
      <point x="0" y="320" type="line" smooth="no"/>
      <point x="40" y="520" type="line" smooth="no"/>
      <point x="120" y="680" type="line" smooth="no"/>
      <point x="240" y="760" type="line" smooth="no"/>
      <point x="360" y="800" type="line" smooth="no"/>
      <point x="390" y="680" type="line" smooth="no"/>
      <point x="280" y="680" type="line" smooth="no"/>
      <point x="200" y="640" type="line" smooth="no"/>
      <point x="120" y="520" type="line" smooth="no"/>
    </contour>
  </outline>
</glyph>
<glyph name="seven" format="1">
  <advance width="600"/>
  <unicode hex="0037"/>
  <outline>
    <contour>
      <point x="320" y="240" type="line" smooth="no"/>
      <point x="400" y="480" type="line" smooth="no"/>
      <point x="560" y="720" type="line" smooth="no"/>
      <point x="560" y="800" type="line" smooth="no"/>
      <point x="40" y="800" type="line" smooth="no"/>
      <point x="40" y="600" type="line" smooth="no"/>
      <point x="80" y="600" type="line" smooth="no"/>
      <point x="160" y="720" type="line" smooth="no"/>
      <point x="480" y="720" type="line" smooth="no"/>
      <point x="280" y="400" type="line" smooth="no"/>
      <point x="200" y="200" type="line" smooth="no"/>
      <point x="160" y="0" type="line" smooth="no"/>
      <point x="320" y="0" type="line" smooth="no"/>
    </contour>
  </outline>
</glyph>
<glyph name="eight" format="1">
  <advance width="564"/>
  <unicode hex="0038"/>
  <outline>
    <contour>
      <point x="160" y="360" type="line" smooth="no"/>
      <point x="120" y="240" type="line" smooth="no"/>
      <point x="120" y="200" type="line" smooth="no"/>
      <point x="160" y="80" type="line" smooth="no"/>
      <point x="240" y="40" type="line" smooth="no"/>
      <point x="360" y="80" type="line" smooth="no"/>
      <point x="400" y="200" type="line" smooth="no"/>
      <point x="400" y="240" type="line" smooth="no"/>
      <point x="360" y="320" type="line" smooth="no"/>
      <point x="240" y="400" type="line" smooth="no"/>
    </contour>
    <contour>
      <point x="320" y="760" type="line" smooth="no"/>
      <point x="200" y="720" type="line" smooth="no"/>
      <point x="160" y="640" type="line" smooth="no"/>
      <point x="200" y="560" type="line" smooth="no"/>
      <point x="320" y="480" type="line" smooth="no"/>
      <point x="400" y="520" type="line" smooth="no"/>
      <point x="440" y="640" type="line" smooth="no"/>
      <point x="400" y="720" type="line" smooth="no"/>
    </contour>
    <contour>
      <point x="200" y="440" type="line" smooth="no"/>
      <point x="80" y="524" type="line" smooth="no"/>
      <point x="40" y="596" type="line" smooth="no"/>
      <point x="40" y="678" type="line" smooth="no"/>
      <point x="120" y="758" type="line" smooth="no"/>
      <point x="240" y="800" type="line" smooth="no"/>
      <point x="320" y="800" type="line" smooth="no"/>
      <point x="440" y="760" type="line" smooth="no"/>
      <point x="520" y="680" type="line" smooth="no"/>
      <point x="520" y="600" type="line" smooth="no"/>
      <point x="480" y="520" type="line" smooth="no"/>
      <point x="360" y="440" type="line" smooth="no"/>
      <point x="480" y="360" type="line" smooth="no"/>
      <point x="520" y="280" type="line" smooth="no"/>
      <point x="520" y="160" type="line" smooth="no"/>
      <point x="440" y="40" type="line" smooth="no"/>
      <point x="320" y="0" type="line" smooth="no"/>
      <point x="200" y="0" type="line" smooth="no"/>
      <point x="80" y="80" type="line" smooth="no"/>
      <point x="40" y="160" type="line" smooth="no"/>
      <point x="40" y="280" type="line" smooth="no"/>
      <point x="120" y="400" type="line" smooth="no"/>
    </contour>
  </outline>
</glyph>
<glyph name="nine" format="1">
  <advance width="17"/>
  <unicode hex="0039"/>
  <outline>
    <contour>
      <point x="11" y="18" type="line"/>
      <point x="9" y="19" type="line"/>
      <point x="6" y="18" type="line"/>
      <point x="5" y="16" type="line"/>
      <point x="5" y="14" type="line"/>
      <point x="6" y="11" type="line"/>
      <point x="8" y="10" type="line"/>
      <point x="10" y="10" type="line"/>
      <point x="12" y="12" type="line"/>
      <point x="12" y="15" type="line"/>
    </contour>
    <contour>
      <point x="5" y="1" type="line"/>
      <point x="8" y="2" type="line"/>
      <point x="10" y="4" type="line"/>
      <point x="12" y="8" type="line"/>
      <point x="12" y="10" type="line"/>
      <point x="10" y="9" type="line"/>
      <point x="7" y="9" type="line"/>
      <point x="3" y="11" type="line"/>
      <point x="2" y="14" type="line"/>
      <point x="3" y="17" type="line"/>
      <point x="5" y="19" type="line"/>
      <point x="8" y="20" type="line"/>
      <point x="11" y="20" type="line"/>
      <point x="14" y="18" type="line"/>
      <point x="15" y="15" type="line"/>
      <point x="15" y="11" type="line"/>
      <point x="14" y="7" type="line"/>
      <point x="11" y="3" type="line"/>
      <point x="9" y="1" type="line"/>
      <point x="6" y="0" type="line"/>
      <point x="5" y="0" type="line"/>
    </contour>
  </outline>
</glyph>
<glyph name="colon" format="1">
  <advance width="5"/>
  <unicode hex="003A"/>
  <outline>
    <contour>
      <point x="2" y="9" type="line"/>
      <point x="0" y="10" type="line"/>
      <point x="0" y="11" type="line"/>
      <point x="1" y="13" type="line"/>
      <point x="2" y="13" type="line"/>
      <point x="4" y="12" type="line"/>
      <point x="4" y="11" type="line"/>
      <point x="3" y="9" type="line"/>
    </contour>
    <contour>
      <point x="2" y="0" type="line"/>
      <point x="0" y="1" type="line"/>
      <point x="0" y="2" type="line"/>
      <point x="1" y="4" type="line"/>
      <point x="2" y="4" type="line"/>
      <point x="4" y="3" type="line"/>
      <point x="4" y="2" type="line"/>
      <point x="3" y="0" type="line"/>
    </contour>
  </outline>
</glyph>
<glyph name="semicolon" format="1">
  <advance width="240"/>
  <unicode hex="003b"/>
  <outline>
    <contour>
      <point x="120" y="360" type="line" smooth="no"/>
      <point x="40" y="400" type="line" smooth="no"/>
      <point x="40" y="440" type="line" smooth="no"/>
      <point x="80" y="520" type="line" smooth="no"/>
      <point x="120" y="520" type="line" smooth="no"/>
      <point x="200" y="480" type="line" smooth="no"/>
      <point x="200" y="440" type="line" smooth="no"/>
      <point x="160" y="360" type="line" smooth="no"/>
    </contour>
    <contour>
      <point x="120" y="-120" type="line" smooth="no"/>
      <point x="0" y="-120" type="line" smooth="no"/>
      <point x="0" y="-80" type="line" smooth="no"/>
      <point x="80" y="-80" type="line" smooth="no"/>
      <point x="120" y="0" type="line" smooth="no"/>
      <point x="40" y="40" type="line" smooth="no"/>
      <point x="40" y="80" type="line" smooth="no"/>
      <point x="80" y="160" type="line" smooth="no"/>
      <point x="120" y="160" type="line" smooth="no"/>
      <point x="200" y="120" type="line" smooth="no"/>
      <point x="200" y="40" type="line" smooth="no"/>
    </contour>
  </outline>
</glyph>
<glyph name="equal" format="1">
  <advance width="561"/>
  <unicode hex="003d"/>
  <outline>
    <contour>
      <point x="520" y="360" type="line" smooth="no"/>
      <point x="520" y="440" type="line" smooth="no"/>
      <point x="40" y="440" type="line" smooth="no"/>
      <point x="40" y="360" type="line" smooth="no"/>
    </contour>
    <contour>
      <point x="520" y="200" type="line" smooth="no"/>
      <point x="520" y="280" type="line" smooth="no"/>
      <point x="40" y="280" type="line" smooth="no"/>
      <point x="40" y="200" type="line" smooth="no"/>
    </contour>
  </outline>
</glyph>
<glyph name="at" format="1">
  <advance width="739"/>
  <unicode hex="0040"/>
  <outline>
    <contour>
      <point x="480" y="440" type="line" smooth="no"/>
      <point x="360" y="440" type="line" smooth="no"/>
      <point x="320" y="400" type="line" smooth="no"/>
      <point x="280" y="240" type="line" smooth="no"/>
      <point x="320" y="120" type="line" smooth="no"/>
      <point x="400" y="80" type="line" smooth="no"/>
      <point x="440" y="160" type="line" smooth="no"/>
    </contour>
    <contour>
      <point x="40" y="520" type="line" smooth="no"/>
      <point x="200" y="640" type="line" smooth="no"/>
      <point x="400" y="690" type="line" smooth="no"/>
      <point x="600" y="640" type="line" smooth="no"/>
      <point x="760" y="520" type="line" smooth="no"/>
      <point x="760" y="200" type="line" smooth="no"/>
      <point x="680" y="42" type="line" smooth="no"/>
      <point x="560" y="0" type="line" smooth="no"/>
      <point x="480" y="120" type="line" smooth="no"/>
      <point x="440" y="40" type="line" smooth="no"/>
      <point x="280" y="0" type="line" smooth="no"/>
      <point x="160" y="160" type="line" smooth="no"/>
      <point x="160" y="320" type="line" smooth="no"/>
      <point x="200" y="440" type="line" smooth="no"/>
      <point x="320" y="520" type="line" smooth="no"/>
      <point x="480" y="480" type="line" smooth="no"/>
      <point x="520" y="520" type="line" smooth="no"/>
      <point x="600" y="520" type="line" smooth="no"/>
      <point x="560" y="200" type="line" smooth="no"/>
      <point x="600" y="80" type="line" smooth="no"/>
      <point x="680" y="200" type="line" smooth="no"/>
      <point x="680" y="480" type="line" smooth="no"/>
      <point x="560" y="600" type="line" smooth="no"/>
      <point x="400" y="640" type="line" smooth="no"/>
      <point x="240" y="600" type="line" smooth="no"/>
      <point x="120" y="480" type="line" smooth="no"/>
      <point x="80" y="280" type="line" smooth="no"/>
      <point x="120" y="120" type="line" smooth="no"/>
      <point x="240" y="-80" type="line" smooth="no"/>
      <point x="480" y="-40" type="line" smooth="no"/>
      <point x="480" y="-80" type="line" smooth="no"/>
      <point x="200" y="-120" type="line" smooth="no"/>
      <point x="40" y="80" type="line" smooth="no"/>
      <point x="0" y="280" type="line" smooth="no"/>
    </contour>
  </outline>
</glyph>
<glyph name="A" format="1">
  <advance width="19"/>
  <unicode hex="0041"/>
  <outline>
    <contour>
      <point x="9" y="16" type="line"/>
      <point x="4" y="2" type="line"/>
      <point x="6" y="0" type="line"/>
      <point x="0" y="0" type="line"/>
      <point x="2" y="2" type="line"/>
      <point x="8" y="18" type="line"/>
      <point x="8" y="19" type="line"/>
      <point x="11" y="20" type="line"/>
      <point x="17" y="2" type="line"/>
      <point x="19" y="0" type="line"/>
      <point x="13" y="0" type="line"/>
      <point x="14" y="2" type="line"/>
    </contour>
    <contour>
      <point x="5" y="7" type="line"/>
      <point x="14" y="7" type="line"/>
      <point x="14" y="6" type="line"/>
      <point x="5" y="6" type="line"/>
    </contour>
  </outline>
</glyph>
<glyph name="B" format="1">
  <advance width="720"/>
  <unicode hex="0042"/>
  <outline>
    <contour>
      <point x="0" y="800" type="line" smooth="no"/>
      <point x="360" y="800.023" type="line" smooth="no"/>
      <point x="560" y="760.023" type="line" smooth="no"/>
      <point x="640" y="600.023" type="line" smooth="no"/>
      <point x="560" y="440.023" type="line" smooth="no"/>
      <point x="440" y="400.023" type="line" smooth="no"/>
      <point x="600" y="360.078" type="line" smooth="no"/>
      <point x="680" y="200.078" type="line" smooth="no"/>
      <point x="600" y="40.0781" type="line" smooth="no"/>
      <point x="440" y="0.078125" type="line" smooth="no"/>
      <point x="0" y="0" type="line" smooth="no"/>
      <point x="80" y="80" type="line" smooth="no"/>
      <point x="80" y="720" type="line" smooth="no"/>
    </contour>
    <contour>
      <point x="240" y="760" type="line" smooth="no"/>
      <point x="200" y="720" type="line" smooth="no"/>
      <point x="200" y="440" type="line" smooth="no"/>
      <point x="360" y="440" type="line" smooth="no"/>
      <point x="440" y="480" type="line" smooth="no"/>
      <point x="480" y="600" type="line" smooth="no"/>
      <point x="440" y="720" type="line" smooth="no"/>
      <point x="360" y="760" type="line" smooth="no"/>
    </contour>
    <contour>
      <point x="200" y="400.031" type="line" smooth="no"/>
      <point x="200" y="79.9766" type="line" smooth="no"/>
      <point x="240" y="39.9766" type="line" smooth="no"/>
      <point x="400" y="40.0547" type="line" smooth="no"/>
      <point x="480" y="80.0547" type="line" smooth="no"/>
      <point x="520" y="200.055" type="line" smooth="no"/>
      <point x="480" y="320.055" type="line" smooth="no"/>
      <point x="360" y="360" type="line" smooth="no"/>
    </contour>
  </outline>
</glyph>
<glyph name="C" format="1">
  <advance width="20"/>
  <unicode hex="0043"/>
  <outline>
    <contour>
      <point x="6" y="6" type="line"/>
      <point x="8" y="2" type="line"/>
      <point x="12" y="1" type="line"/>
      <point x="15" y="2" type="line"/>
      <point x="17" y="4" type="line"/>
      <point x="18" y="6" type="line"/>
      <point x="19" y="5" type="line"/>
      <point x="17" y="2" type="line"/>
      <point x="14" y="0" type="line"/>
      <point x="9" y="0" type="line"/>
      <point x="5" y="2" type="line"/>
      <point x="3" y="5" type="line"/>
      <point x="2" y="10" type="line"/>
      <point x="3" y="15" type="line"/>
      <point x="5" y="18" type="line"/>
      <point x="9" y="20" type="line"/>
      <point x="14" y="20" type="line"/>
      <point x="18" y="18" type="line"/>
      <point x="19" y="16" type="line"/>
      <point x="17" y="14" type="line"/>
      <point x="15" y="14" type="line"/>
      <point x="15" y="17" type="line"/>
      <point x="13" y="19" type="line"/>
      <point x="11" y="19" type="line"/>
      <point x="8" y="17" type="line"/>
      <point x="6" y="14" type="line"/>
    </contour>
  </outline>
</glyph>
<glyph name="D" format="1">
  <advance width="760"/>
  <unicode hex="0044"/>
  <outline>
    <contour>
      <point x="0" y="800" type="line" smooth="no"/>
      <point x="360" y="800" type="line" smooth="no"/>
      <point x="560" y="720" type="line" smooth="no"/>
      <point x="670" y="600" type="line" smooth="no"/>
      <point x="720" y="400" type="line" smooth="no"/>
      <point x="700" y="240" type="line" smooth="no"/>
      <point x="600" y="40" type="line" smooth="no"/>
      <point x="440" y="0" type="line" smooth="no"/>
      <point x="0" y="0" type="line" smooth="no"/>
      <point x="80" y="80" type="line" smooth="no"/>
      <point x="80" y="720" type="line" smooth="no"/>
    </contour>
    <contour>
      <point x="560" y="560" type="line" smooth="no"/>
      <point x="520" y="640" type="line" smooth="no"/>
      <point x="440" y="720" type="line" smooth="no"/>
      <point x="360" y="760" type="line" smooth="no"/>
      <point x="240" y="760" type="line" smooth="no"/>
      <point x="200" y="720" type="line" smooth="no"/>
      <point x="200" y="80" type="line" smooth="no"/>
      <point x="240" y="40" type="line" smooth="no"/>
      <point x="400" y="40" type="line" smooth="no"/>
      <point x="480" y="80" type="line" smooth="no"/>
      <point x="560" y="160" type="line" smooth="no"/>
      <point x="600" y="400" type="line" smooth="no"/>
    </contour>
  </outline>
</glyph>
<glyph name="E" format="1">
  <advance width="760"/>
  <unicode hex="0045"/>
  <outline>
    <contour>
      <point x="640" y="200" type="line" smooth="no"/>
      <point x="640" y="0" type="line" smooth="no"/>
      <point x="0" y="0" type="line" smooth="no"/>
      <point x="80" y="80" type="line" smooth="no"/>
      <point x="80" y="720" type="line" smooth="no"/>
      <point x="0" y="800" type="line" smooth="no"/>
      <point x="600" y="800" type="line" smooth="no"/>
      <point x="600" y="640" type="line" smooth="no"/>
      <point x="560" y="640" type="line" smooth="no"/>
      <point x="480" y="760" type="line" smooth="no"/>
      <point x="240" y="760" type="line" smooth="no"/>
      <point x="200" y="720" type="line" smooth="no"/>
      <point x="200" y="480" type="line" smooth="no"/>
      <point x="240" y="440" type="line" smooth="no"/>
      <point x="400" y="440" type="line" smooth="no"/>
      <point x="480" y="520" type="line" smooth="no"/>
      <point x="480" y="320" type="line" smooth="no"/>
      <point x="400" y="400" type="line" smooth="no"/>
      <point x="240" y="400" type="line" smooth="no"/>
      <point x="200" y="360" type="line" smooth="no"/>
      <point x="200" y="80" type="line" smooth="no"/>
      <point x="240" y="40" type="line" smooth="no"/>
      <point x="520" y="40" type="line" smooth="no"/>
      <point x="600" y="200" type="line" smooth="no"/>
    </contour>
  </outline>
</glyph>
<glyph name="F" format="1">
  <advance width="17"/>
  <unicode hex="0046"/>
  <outline>
    <contour>
      <point x="1" y="0" type="line"/>
      <point x="3" y="2" type="line"/>
      <point x="3" y="18" type="line"/>
      <point x="1" y="20" type="line"/>
      <point x="16" y="20" type="line"/>
      <point x="16" y="16" type="line"/>
      <point x="15" y="16" type="line"/>
      <point x="13" y="19" type="line"/>
      <point x="7" y="19" type="line"/>
      <point x="6" y="18" type="line"/>
      <point x="6" y="12" type="line"/>
      <point x="7" y="11" type="line"/>
      <point x="11" y="11" type="line"/>
      <point x="13" y="13" type="line"/>
      <point x="13" y="8" type="line"/>
      <point x="11" y="10" type="line"/>
      <point x="7" y="10" type="line"/>
      <point x="6" y="9" type="line"/>
      <point x="6" y="2" type="line"/>
      <point x="8" y="0" type="line"/>
    </contour>
  </outline>
</glyph>
<glyph name="G" format="1">
  <advance width="22"/>
  <unicode hex="0047"/>
  <outline>
    <contour>
      <point x="6" y="6" type="line"/>
      <point x="8" y="2" type="line"/>
      <point x="13" y="1" type="line"/>
      <point x="16" y="3" type="line"/>
      <point x="16" y="7" type="line"/>
      <point x="14" y="9" type="line"/>
      <point x="21" y="9" type="line"/>
      <point x="19" y="7" type="line"/>
      <point x="19" y="0" type="line"/>
      <point x="17" y="2" type="line"/>
      <point x="14" y="0" type="line"/>
      <point x="9" y="0" type="line"/>
      <point x="5" y="2" type="line"/>
      <point x="3" y="5" type="line"/>
      <point x="2" y="10" type="line"/>
      <point x="3" y="15" type="line"/>
      <point x="5" y="18" type="line"/>
      <point x="9" y="20" type="line"/>
      <point x="14" y="20" type="line"/>
      <point x="18" y="18" type="line"/>
      <point x="19" y="16" type="line"/>
      <point x="17" y="14" type="line"/>
      <point x="15" y="14" type="line"/>
      <point x="15" y="17" type="line"/>
      <point x="13" y="19" type="line"/>
      <point x="11" y="19" type="line"/>
      <point x="8" y="17" type="line"/>
      <point x="6" y="14" type="line"/>
    </contour>
  </outline>
</glyph>
<glyph name="H" format="1">
  <advance width="760"/>
  <unicode hex="0048"/>
  <outline>
    <contour>
      <point x="280" y="800" type="line" smooth="no"/>
      <point x="200" y="720" type="line" smooth="no"/>
      <point x="200" y="480" type="line" smooth="no"/>
      <point x="240" y="440" type="line" smooth="no"/>
      <point x="480" y="440" type="line" smooth="no"/>
      <point x="520" y="480" type="line" smooth="no"/>
      <point x="520" y="720" type="line" smooth="no"/>
      <point x="440" y="800" type="line" smooth="no"/>
      <point x="720" y="800" type="line" smooth="no"/>
      <point x="640" y="720" type="line" smooth="no"/>
      <point x="640" y="80" type="line" smooth="no"/>
      <point x="720" y="0" type="line" smooth="no"/>
      <point x="440" y="0" type="line" smooth="no"/>
      <point x="520" y="80" type="line" smooth="no"/>
      <point x="520" y="360" type="line" smooth="no"/>
      <point x="480" y="400" type="line" smooth="no"/>
      <point x="240" y="400" type="line" smooth="no"/>
      <point x="200" y="360" type="line" smooth="no"/>
      <point x="200" y="80" type="line" smooth="no"/>
      <point x="280" y="0" type="line" smooth="no"/>
      <point x="0" y="0" type="line" smooth="no"/>
      <point x="80" y="80" type="line" smooth="no"/>
      <point x="80" y="720" type="line" smooth="no"/>
      <point x="0" y="800" type="line" smooth="no"/>
    </contour>
  </outline>
</glyph>
<glyph name="I" format="1">
  <advance width="9"/>
  <unicode hex="0049"/>
  <outline>
    <contour>
      <point x="6" y="2" type="line"/>
      <point x="8" y="0" type="line"/>
      <point x="1" y="0" type="line"/>
      <point x="3" y="2" type="line"/>
      <point x="3" y="18" type="line"/>
      <point x="1" y="20" type="line"/>
      <point x="8" y="20" type="line"/>
      <point x="6" y="18" type="line"/>
    </contour>
  </outline>
</glyph>
<glyph name="J" format="1">
  <advance width="760"/>
  <unicode hex="004a"/>
  <outline>
    <contour>
      <point x="120" y="160" type="line" smooth="no"/>
      <point x="120" y="80" type="line" smooth="no"/>
      <point x="160" y="40" type="line" smooth="no"/>
      <point x="200" y="40" type="line" smooth="no"/>
      <point x="240" y="120" type="line" smooth="no"/>
      <point x="240" y="720" type="line" smooth="no"/>
      <point x="160" y="800" type="line" smooth="no"/>
      <point x="440" y="800" type="line" smooth="no"/>
      <point x="360" y="720" type="line" smooth="no"/>
      <point x="360" y="80" type="line" smooth="no"/>
      <point x="280" y="0" type="line" smooth="no"/>
      <point x="120" y="0" type="line" smooth="no"/>
      <point x="40" y="80" type="line" smooth="no"/>
      <point x="80" y="200" type="line" smooth="no"/>
    </contour>
  </outline>
</glyph>
<glyph name="K" format="1">
  <advance width="20"/>
  <unicode hex="004B"/>
  <outline>
    <contour>
      <point x="19" y="0" type="line"/>
      <point x="15" y="0" type="line"/>
      <point x="14" y="1" type="line"/>
      <point x="10" y="8" type="line"/>
      <point x="8" y="10" type="line"/>
      <point x="6" y="8" type="line"/>
      <point x="6" y="2" type="line"/>
      <point x="8" y="0" type="line"/>
      <point x="1" y="0" type="line"/>
      <point x="3" y="2" type="line"/>
      <point x="3" y="18" type="line"/>
      <point x="1" y="20" type="line"/>
      <point x="8" y="20" type="line"/>
      <point x="6" y="18" type="line"/>
      <point x="6" y="10" type="line"/>
      <point x="14" y="18" type="line"/>
      <point x="12" y="20" type="line"/>
      <point x="18" y="20" type="line"/>
      <point x="16" y="18" type="line"/>
      <point x="9" y="11" type="line"/>
      <point x="13" y="9" type="line"/>
    </contour>
  </outline>
</glyph>
<glyph name="L" format="1">
  <advance width="760"/>
  <unicode hex="004c"/>
  <outline>
    <contour>
      <point x="200" y="80" type="line" smooth="no"/>
      <point x="240" y="40" type="line" smooth="no"/>
      <point x="480" y="40" type="line" smooth="no"/>
      <point x="560" y="200" type="line" smooth="no"/>
      <point x="600" y="200" type="line" smooth="no"/>
      <point x="600" y="0" type="line" smooth="no"/>
      <point x="0" y="0" type="line" smooth="no"/>
      <point x="80" y="80" type="line" smooth="no"/>
      <point x="80" y="720" type="line" smooth="no"/>
      <point x="0" y="800" type="line" smooth="no"/>
      <point x="280" y="800" type="line" smooth="no"/>
      <point x="200" y="720" type="line" smooth="no"/>
    </contour>
  </outline>
</glyph>
<glyph name="M" format="1">
  <advance width="960"/>
  <unicode hex="004d"/>
  <outline>
    <contour>
      <point x="480" y="230" type="line" smooth="no"/>
      <point x="680" y="800" type="line" smooth="no"/>
      <point x="920" y="800" type="line" smooth="no"/>
      <point x="840" y="720" type="line" smooth="no"/>
      <point x="840" y="80" type="line" smooth="no"/>
      <point x="920" y="0" type="line" smooth="no"/>
      <point x="640" y="0" type="line" smooth="no"/>
      <point x="720" y="80" type="line" smooth="no"/>
      <point x="720" y="680" type="line" smooth="no"/>
      <point x="440" y="-40" type="line" smooth="no"/>
      <point x="160" y="680" type="line" smooth="no"/>
      <point x="160" y="80" type="line" smooth="no"/>
      <point x="240" y="0" type="line" smooth="no"/>
      <point x="0" y="0" type="line" smooth="no"/>
      <point x="80" y="80" type="line" smooth="no"/>
      <point x="80" y="720" type="line" smooth="no"/>
      <point x="0" y="800" type="line" smooth="no"/>
      <point x="240" y="800" type="line" smooth="no"/>
    </contour>
  </outline>
</glyph>
<glyph name="N" format="1">
  <advance width="1090"/>
  <unicode hex="004e"/>
  <outline>
    <contour>
      <point x="640" y="-40" type="line" smooth="no"/>
      <point x="560" y="0" type="line" smooth="no"/>
      <point x="160" y="680" type="line" smooth="no"/>
      <point x="160" y="80" type="line" smooth="no"/>
      <point x="240" y="0" type="line" smooth="no"/>
      <point x="0" y="0" type="line" smooth="no"/>
      <point x="80" y="80" type="line" smooth="no"/>
      <point x="80" y="720" type="line" smooth="no"/>
      <point x="0" y="800" type="line" smooth="no"/>
      <point x="240" y="800" type="line" smooth="no"/>
      <point x="560" y="280" type="line" smooth="no"/>
      <point x="560" y="720" type="line" smooth="no"/>
      <point x="480" y="800" type="line" smooth="no"/>
      <point x="720" y="800" type="line" smooth="no"/>
      <point x="640" y="720" type="line" smooth="no"/>
    </contour>
  </outline>
</glyph>
<glyph name="O" format="1">
  <advance width="24"/>
  <unicode hex="004F"/>
  <outline>
    <contour>
      <point x="18" y="14" type="line"/>
      <point x="16" y="18" type="line"/>
      <point x="12" y="19" type="line"/>
      <point x="8" y="18" type="line"/>
      <point x="6" y="14" type="line"/>
      <point x="6" y="6" type="line"/>
      <point x="8" y="2" type="line"/>
      <point x="12" y="1" type="line"/>
      <point x="16" y="2" type="line"/>
      <point x="18" y="6" type="line"/>
    </contour>
    <contour>
      <point x="19" y="2" type="line"/>
      <point x="15" y="0" type="line"/>
      <point x="9" y="0" type="line"/>
      <point x="5" y="2" type="line"/>
      <point x="3" y="5" type="line"/>
      <point x="2" y="10" type="line"/>
      <point x="3" y="15" type="line"/>
      <point x="5" y="18" type="line"/>
      <point x="9" y="20" type="line"/>
      <point x="15" y="20" type="line"/>
      <point x="19" y="18" type="line"/>
      <point x="21" y="15" type="line"/>
      <point x="22" y="10" type="line"/>
      <point x="21" y="5" type="line"/>
    </contour>
  </outline>
</glyph>
<glyph name="P" format="1">
  <advance width="19"/>
  <unicode hex="0050"/>
  <outline>
    <contour>
      <point x="6" y="9" type="line"/>
      <point x="6" y="2" type="line"/>
      <point x="8" y="0" type="line"/>
      <point x="1" y="0" type="line"/>
      <point x="3" y="2" type="line"/>
      <point x="3" y="18" type="line"/>
      <point x="1" y="20" type="line"/>
      <point x="10" y="20" type="line"/>
      <point x="15" y="19" type="line"/>
      <point x="17" y="15" type="line"/>
      <point x="15" y="10" type="line"/>
      <point x="10" y="8" type="line"/>
    </contour>
    <contour>
      <point x="7" y="19" type="line"/>
      <point x="6" y="18" type="line"/>
      <point x="6" y="10" type="line"/>
      <point x="9" y="10" type="line"/>
      <point x="12" y="11" type="line"/>
      <point x="13" y="15" type="line"/>
      <point x="12" y="18" type="line"/>
      <point x="10" y="19" type="line"/>
    </contour>
  </outline>
</glyph>
<glyph name="Q" format="1">
  <advance width="24"/>
  <unicode hex="0051"/>
  <outline>
    <contour>
      <point x="14" y="1" type="line"/>
      <point x="16" y="2" type="line"/>
      <point x="18" y="6" type="line"/>
      <point x="18" y="14" type="line"/>
      <point x="16" y="18" type="line"/>
      <point x="12" y="19" type="line"/>
      <point x="8" y="18" type="line"/>
      <point x="6" y="14" type="line"/>
      <point x="6" y="6" type="line"/>
      <point x="7" y="3" type="line"/>
      <point x="8" y="5" type="line"/>
      <point x="11" y="5" type="line"/>
      <point x="13" y="3" type="line"/>
    </contour>
    <contour>
      <point x="14" y="0" type="line"/>
      <point x="15" y="-1" type="line"/>
      <point x="16" y="-2" type="line"/>
      <point x="18" y="-2" type="line"/>
      <point x="19" y="-1" type="line"/>
      <point x="20" y="1" type="line"/>
      <point x="22" y="-1" type="line"/>
      <point x="21" y="-2" type="line"/>
      <point x="18" y="-3" type="line"/>
      <point x="16" y="-3" type="line"/>
      <point x="13" y="-1" type="line"/>
      <point x="12" y="0" type="line"/>
      <point x="9" y="0" type="line"/>
      <point x="5" y="2" type="line"/>
      <point x="3" y="5" type="line"/>
      <point x="2" y="10" type="line"/>
      <point x="3" y="15" type="line"/>
      <point x="5" y="18" type="line"/>
      <point x="9" y="20" type="line"/>
      <point x="15" y="20" type="line"/>
      <point x="19" y="18" type="line"/>
      <point x="21" y="15" type="line"/>
      <point x="22" y="10" type="line"/>
      <point x="21" y="5" type="line"/>
      <point x="19" y="2" type="line"/>
    </contour>
    <contour>
      <point x="8" y="2" type="line"/>
      <point x="10" y="1" type="line"/>
      <point x="12" y="1" type="line"/>
      <point x="11" y="3" type="line"/>
      <point x="9" y="4" type="line"/>
      <point x="8" y="3" type="line"/>
    </contour>
  </outline>
</glyph>
<glyph name="R" format="1">
  <advance width="19"/>
  <unicode hex="0052"/>
  <outline>
    <contour>
      <point x="1" y="20" type="line"/>
      <point x="10" y="20" type="line"/>
      <point x="15" y="19" type="line"/>
      <point x="17" y="15" type="line"/>
      <point x="15" y="11" type="line"/>
      <point x="9" y="10" type="line"/>
      <point x="12" y="9" type="line"/>
      <point x="18" y="0" type="line"/>
      <point x="18" y="-1" type="line"/>
      <point x="13" y="1" type="line"/>
      <point x="9" y="8" type="line"/>
      <point x="8" y="9" type="line"/>
      <point x="6" y="10" type="line"/>
      <point x="6" y="2" type="line"/>
      <point x="8" y="0" type="line"/>
      <point x="1" y="0" type="line"/>
      <point x="3" y="2" type="line"/>
      <point x="3" y="18" type="line"/>
    </contour>
    <contour>
      <point x="7" y="19" type="line"/>
      <point x="6" y="18" type="line"/>
      <point x="6" y="11" type="line"/>
      <point x="10" y="11" type="line"/>
      <point x="12" y="12" type="line"/>
      <point x="13" y="15" type="line"/>
      <point x="12" y="18" type="line"/>
      <point x="10" y="19" type="line"/>
    </contour>
  </outline>
</glyph>
<glyph name="S" format="1">
  <advance width="18"/>
  <unicode hex="0053"/>
  <outline>
    <contour>
      <point x="5" y="14" type="line"/>
      <point x="6" y="13" type="line"/>
      <point x="14" y="10" type="line"/>
      <point x="16" y="9" type="line"/>
      <point x="17" y="6" type="line"/>
      <point x="15" y="3" type="line"/>
      <point x="11" y="0" type="line"/>
      <point x="6" y="0" type="line"/>
      <point x="2" y="2" type="line"/>
      <point x="1" y="4" type="line"/>
      <point x="3" y="6" type="line"/>
      <point x="5" y="6" type="line"/>
      <point x="5" y="3" type="line"/>
      <point x="7" y="1" type="line"/>
      <point x="10" y="1" type="line"/>
      <point x="12" y="3" type="line"/>
      <point x="13" y="5" type="line"/>
      <point x="12" y="7" type="line"/>
      <point x="4" y="10" type="line"/>
      <point x="2" y="13" type="line"/>
      <point x="2" y="15" type="line"/>
      <point x="4" y="18" type="line"/>
      <point x="7" y="20" type="line"/>
      <point x="11" y="20" type="line"/>
      <point x="15" y="18" type="line"/>
      <point x="16" y="16" type="line"/>
      <point x="14" y="14" type="line"/>
      <point x="13" y="14" type="line"/>
      <point x="12" y="17" type="line"/>
      <point x="10" y="19" type="line"/>
      <point x="8" y="19" type="line"/>
      <point x="6" y="18" type="line"/>
      <point x="5" y="16" type="line"/>
    </contour>
  </outline>
</glyph>
<glyph name="T" format="1">
  <advance width="17"/>
  <unicode hex="0054"/>
  <outline>
    <contour>
      <point x="17" y="16" type="line"/>
      <point x="16" y="16" type="line"/>
      <point x="14" y="18" type="line"/>
      <point x="10" y="19" type="line"/>
      <point x="10" y="2" type="line"/>
      <point x="12" y="0" type="line"/>
      <point x="5" y="0" type="line"/>
      <point x="7" y="2" type="line"/>
      <point x="7" y="19" type="line"/>
      <point x="3" y="18" type="line"/>
      <point x="1" y="16" type="line"/>
      <point x="0" y="16" type="line"/>
      <point x="1" y="21" type="line"/>
      <point x="5" y="20" type="line"/>
      <point x="12" y="20" type="line"/>
      <point x="16" y="21" type="line"/>
    </contour>
  </outline>
</glyph>
<glyph name="U" format="1">
  <advance width="21"/>
  <unicode hex="0055"/>
  <outline>
    <contour>
      <point x="18" y="6" type="line"/>
      <point x="17" y="3" type="line"/>
      <point x="15" y="1" type="line"/>
      <point x="12" y="0" type="line"/>
      <point x="9" y="0" type="line"/>
      <point x="6" y="1" type="line"/>
      <point x="4" y="3" type="line"/>
      <point x="3" y="6" type="line"/>
      <point x="3" y="18" type="line"/>
      <point x="1" y="20" type="line"/>
      <point x="8" y="20" type="line"/>
      <point x="6" y="18" type="line"/>
      <point x="6" y="6" type="line"/>
      <point x="7" y="3" type="line"/>
      <point x="8" y="2" type="line"/>
      <point x="11" y="1" type="line"/>
      <point x="14" y="2" type="line"/>
      <point x="15" y="3" type="line"/>
      <point x="16" y="6" type="line"/>
      <point x="16" y="18" type="line"/>
      <point x="14" y="20" type="line"/>
      <point x="20" y="20" type="line"/>
      <point x="18" y="18" type="line"/>
    </contour>
  </outline>
</glyph>
<glyph name="V" format="1">
  <advance width="19"/>
  <unicode hex="0056"/>
  <outline>
    <contour>
      <point x="15" y="18" type="line"/>
      <point x="13" y="20" type="line"/>
      <point x="19" y="20" type="line"/>
      <point x="17" y="18" type="line"/>
      <point x="10" y="0" type="line"/>
      <point x="9" y="-1" type="line"/>
      <point x="2" y="18" type="line"/>
      <point x="0" y="20" type="line"/>
      <point x="7" y="20" type="line"/>
      <point x="5" y="18" type="line"/>
      <point x="10" y="5" type="line"/>
    </contour>
  </outline>
</glyph>
<glyph name="W" format="1">
  <advance width="26"/>
  <unicode hex="0057"/>
  <outline>
    <contour>
      <point x="15" y="19" type="line"/>
      <point x="18" y="5" type="line"/>
      <point x="22" y="18" type="line"/>
      <point x="20" y="20" type="line"/>
      <point x="26" y="20" type="line"/>
      <point x="24" y="18" type="line"/>
      <point x="18" y="0" type="line"/>
      <point x="17" y="-1" type="line"/>
      <point x="13" y="13" type="line"/>
      <point x="9" y="0" type="line"/>
      <point x="8" y="-1" type="line"/>
      <point x="2" y="18" type="line"/>
      <point x="0" y="20" type="line"/>
      <point x="7" y="20" type="line"/>
      <point x="5" y="18" type="line"/>
      <point x="9" y="5" type="line"/>
      <point x="12" y="18" type="line"/>
    </contour>
  </outline>
</glyph>
<glyph name="X" format="1">
  <advance width="800"/>
  <unicode hex="0058"/>
  <outline>
    <contour>
      <point x="600" y="720" type="line" smooth="no"/>
      <point x="520" y="800" type="line" smooth="no"/>
      <point x="760" y="800" type="line" smooth="no"/>
      <point x="680" y="720" type="line" smooth="no"/>
      <point x="440" y="440" type="line" smooth="no"/>
      <point x="680" y="124" type="line" smooth="no"/>
      <point x="760" y="0" type="line" smooth="no"/>
      <point x="480" y="0" type="line" smooth="no"/>
      <point x="560" y="82" type="line" smooth="no"/>
      <point x="360" y="360" type="line" smooth="no"/>
      <point x="160" y="80" type="line" smooth="no"/>
      <point x="240" y="0" type="line" smooth="no"/>
      <point x="0" y="0" type="line" smooth="no"/>
      <point x="80" y="80" type="line" smooth="no"/>
      <point x="320" y="400" type="line" smooth="no"/>
      <point x="80" y="684" type="line" smooth="no"/>
      <point x="0" y="800" type="line" smooth="no"/>
      <point x="280" y="800" type="line" smooth="no"/>
      <point x="200" y="720" type="line" smooth="no"/>
      <point x="400" y="480" type="line" smooth="no"/>
    </contour>
  </outline>
</glyph>
<glyph name="Y" format="1">
  <advance width="17"/>
  <unicode hex="0059"/>
  <outline>
    <contour>
      <point x="9" y="11" type="line"/>
      <point x="10" y="11" type="line"/>
      <point x="13" y="17" type="line"/>
      <point x="13" y="18" type="line"/>
      <point x="11" y="20" type="line"/>
      <point x="17" y="20" type="line"/>
      <point x="15" y="18" type="line"/>
      <point x="10" y="9" type="line"/>
      <point x="10" y="2" type="line"/>
      <point x="12" y="0" type="line"/>
      <point x="5" y="0" type="line"/>
      <point x="7" y="2" type="line"/>
      <point x="7" y="9" type="line"/>
      <point x="2" y="18" type="line"/>
      <point x="0" y="20" type="line"/>
      <point x="7" y="20" type="line"/>
      <point x="5" y="18" type="line"/>
    </contour>
  </outline>
</glyph>
<glyph name="Z" format="1">
  <advance width="20"/>
  <unicode hex="005A"/>
  <outline>
    <contour>
      <point x="7" y="1" type="line"/>
      <point x="14" y="1" type="line"/>
      <point x="17" y="6" type="line"/>
      <point x="18" y="6" type="line"/>
      <point x="17" y="-1" type="line"/>
      <point x="15" y="0" type="line"/>
      <point x="2" y="0" type="line"/>
      <point x="2" y="1" type="line"/>
      <point x="13" y="19" type="line"/>
      <point x="6" y="19" type="line"/>
      <point x="3" y="15" type="line"/>
      <point x="2" y="15" type="line"/>
      <point x="3" y="21" type="line"/>
      <point x="6" y="20" type="line"/>
      <point x="18" y="20" type="line"/>
      <point x="7" y="2" type="line"/>
    </contour>
  </outline>
</glyph>
<glyph name="b" format="1">
  <advance width="17"/>
  <unicode hex="0062"/>
  <outline>
    <contour>
      <point x="3" y="18" type="line"/>
      <point x="1" y="19" type="line"/>
      <point x="6" y="21" type="line"/>
      <point x="6" y="14" type="line"/>
      <point x="8" y="15" type="line"/>
      <point x="10" y="15" type="line"/>
      <point x="13" y="14" type="line"/>
      <point x="15" y="10" type="line"/>
      <point x="15" y="5" type="line"/>
      <point x="13" y="1" type="line"/>
      <point x="10" y="0" type="line"/>
      <point x="8" y="0" type="line"/>
      <point x="6" y="1" type="line"/>
      <point x="5" y="2" type="line"/>
      <point x="3" y="0" type="line"/>
    </contour>
    <contour>
      <point x="9" y="14" type="line"/>
      <point x="7" y="13" type="line"/>
      <point x="6" y="11" type="line"/>
      <point x="6" y="4" type="line"/>
      <point x="7" y="2" type="line"/>
      <point x="9" y="1" type="line"/>
      <point x="11" y="2" type="line"/>
      <point x="12" y="8" type="line"/>
      <point x="11" y="13" type="line"/>
    </contour>
  </outline>
</glyph>
<glyph name="c" format="1">
  <advance width="14"/>
  <unicode hex="0063"/>
  <outline>
    <contour>
      <point x="10" y="13" type="line"/>
      <point x="8" y="14" type="line"/>
      <point x="6" y="13" type="line"/>
      <point x="5" y="9" type="line"/>
      <point x="5" y="6" type="line"/>
      <point x="6" y="2" type="line"/>
      <point x="9" y="1" type="line"/>
      <point x="11" y="2" type="line"/>
      <point x="12" y="4" type="line"/>
      <point x="14" y="3" type="line"/>
      <point x="12" y="1" type="line"/>
      <point x="10" y="0" type="line"/>
      <point x="7" y="0" type="line"/>
      <point x="4" y="1" type="line"/>
      <point x="2" y="5" type="line"/>
      <point x="2" y="10" type="line"/>
      <point x="4" y="14" type="line"/>
      <point x="7" y="15" type="line"/>
      <point x="9" y="15" type="line"/>
      <point x="12" y="14" type="line"/>
      <point x="13" y="12" type="line"/>
      <point x="11" y="10" type="line"/>
    </contour>
  </outline>
</glyph>
<glyph name="f" format="1">
  <advance width="10"/>
  <unicode hex="0066"/>
  <outline>
    <contour>
      <point x="6" y="14" type="line"/>
      <point x="9" y="14" type="line"/>
      <point x="9" y="13" type="line"/>
      <point x="8" y="13" type="line"/>
      <point x="6" y="12" type="line"/>
      <point x="6" y="2" type="line"/>
      <point x="8" y="0" type="line"/>
      <point x="1" y="0" type="line"/>
      <point x="3" y="2" type="line"/>
      <point x="3" y="12" type="line"/>
      <point x="2" y="13" type="line"/>
      <point x="2" y="14" type="line"/>
      <point x="3" y="14" type="line"/>
      <point x="3" y="17" type="line"/>
      <point x="4" y="19" type="line"/>
      <point x="5" y="20" type="line"/>
      <point x="9" y="21" type="line"/>
      <point x="11" y="20" type="line"/>
      <point x="11" y="17" type="line"/>
      <point x="10" y="16" type="line"/>
      <point x="8" y="17" type="line"/>
      <point x="9" y="19" type="line"/>
      <point x="8" y="20" type="line"/>
      <point x="6" y="19" type="line"/>
      <point x="5" y="17" type="line"/>
    </contour>
  </outline>
</glyph>
<glyph name="g" format="1">
  <advance width="600"/>
  <unicode hex="0067"/>
  <outline>
    <contour>
      <point x="520" y="600" type="line" smooth="no"/>
      <point x="560" y="480" type="line" smooth="no"/>
      <point x="520" y="480" type="line" smooth="no"/>
      <point x="416" y="496" type="line" smooth="no"/>
      <point x="480" y="400" type="line" smooth="no"/>
      <point x="480" y="280" type="line" smooth="no"/>
      <point x="440" y="240" type="line" smooth="no"/>
      <point x="320" y="160" type="line" smooth="no"/>
      <point x="200" y="120" type="line" smooth="no"/>
      <point x="400" y="40" type="line" smooth="no"/>
      <point x="520" y="-80" type="line" smooth="no"/>
      <point x="520" y="-160" type="line" smooth="no"/>
      <point x="440" y="-280" type="line" smooth="no"/>
      <point x="320" y="-320" type="line" smooth="no"/>
      <point x="240" y="-320" type="line" smooth="no"/>
      <point x="80" y="-280" type="line" smooth="no"/>
      <point x="0" y="-160" type="line" smooth="no"/>
      <point x="0" y="-80" type="line" smooth="no"/>
      <point x="160" y="40" type="line" smooth="no"/>
      <point x="40" y="80" type="line" smooth="no"/>
      <point x="80" y="120" type="line" smooth="no"/>
      <point x="200" y="160" type="line" smooth="no"/>
      <point x="80" y="200" type="line" smooth="no"/>
      <point x="0" y="280" type="line" smooth="no"/>
      <point x="0" y="400" type="line" smooth="no"/>
      <point x="80" y="520" type="line" smooth="no"/>
      <point x="200" y="560" type="line" smooth="no"/>
      <point x="280" y="560" type="line" smooth="no"/>
      <point x="400" y="520" type="line" smooth="no"/>
      <point x="440" y="560" type="line" smooth="no"/>
    </contour>
    <contour>
      <point x="240" y="520" type="line" smooth="no"/>
      <point x="160" y="480" type="line" smooth="no"/>
      <point x="120" y="360" type="line" smooth="no"/>
      <point x="160" y="240" type="line" smooth="no"/>
      <point x="240" y="200" type="line" smooth="no"/>
      <point x="320" y="240" type="line" smooth="no"/>
      <point x="360" y="360" type="line" smooth="no"/>
      <point x="320" y="480" type="line" smooth="no"/>
    </contour>
    <contour>
      <point x="200" y="0" type="line" smooth="no"/>
      <point x="120" y="-80" type="line" smooth="no"/>
      <point x="120" y="-160" type="line" smooth="no"/>
      <point x="200" y="-240" type="line" smooth="no"/>
      <point x="360" y="-280" type="line" smooth="no"/>
      <point x="400" y="-200" type="line" smooth="no"/>
      <point x="400" y="-120" type="line" smooth="no"/>
      <point x="320" y="-40" type="line" smooth="no"/>
    </contour>
  </outline>
</glyph>
<glyph name="h" format="1">
  <advance width="680"/>
  <unicode hex="0068"/>
  <outline>
    <contour>
      <point x="0" y="760" type="line" smooth="no"/>
      <point x="200" y="840" type="line" smooth="no"/>
      <point x="200" y="440" type="line" smooth="no"/>
      <point x="280" y="520" type="line" smooth="no"/>
      <point x="360" y="560" type="line" smooth="no"/>
      <point x="520" y="520" type="line" smooth="no"/>
      <point x="560" y="440" type="line" smooth="no"/>
      <point x="560" y="80" type="line" smooth="no"/>
      <point x="640" y="0" type="line" smooth="no"/>
      <point x="360" y="0" type="line" smooth="no"/>
      <point x="440" y="80" type="line" smooth="no"/>
      <point x="440" y="440" type="line" smooth="no"/>
      <point x="400" y="480" type="line" smooth="no"/>
      <point x="320" y="480" type="line" smooth="no"/>
      <point x="200" y="360" type="line" smooth="no"/>
      <point x="200" y="80" type="line" smooth="no"/>
      <point x="280" y="0" type="line" smooth="no"/>
      <point x="160" y="0" type="line" smooth="no"/>
      <point x="80" y="0" type="line" smooth="no"/>
      <point x="0" y="0" type="line" smooth="no"/>
      <point x="80" y="80" type="line" smooth="no"/>
      <point x="80" y="720" type="line" smooth="no"/>
    </contour>
  </outline>
</glyph>
<glyph name="i" format="1">
  <advance width="9"/>
  <unicode hex="0069"/>
  <outline>
    <contour>
      <point x="1" y="13" type="line"/>
      <point x="6" y="15" type="line"/>
      <point x="6" y="2" type="line"/>
      <point x="8" y="0" type="line"/>
      <point x="1" y="0" type="line"/>
      <point x="3" y="2" type="line"/>
      <point x="3" y="12" type="line"/>
    </contour>
    <contour>
      <point x="4" y="16" type="line"/>
      <point x="2" y="17" type="line"/>
      <point x="2" y="18" type="line"/>
      <point x="3" y="20" type="line"/>
      <point x="4" y="20" type="line"/>
      <point x="6" y="19" type="line"/>
      <point x="6" y="18" type="line"/>
      <point x="5" y="16" type="line"/>
    </contour>
  </outline>
</glyph>
<glyph name="j" format="1">
  <advance width="280"/>
  <unicode hex="006a"/>
  <outline>
    <contour>
      <point x="40" y="480" type="line" smooth="no"/>
      <point x="240" y="560" type="line" smooth="no"/>
      <point x="240" y="-200" type="line" smooth="no"/>
      <point x="160" y="-280" type="line" smooth="no"/>
      <point x="80" y="-320" type="line" smooth="no"/>
      <point x="-40" y="-280" type="line" smooth="no"/>
      <point x="-80" y="-240" type="line" smooth="no"/>
      <point x="-80" y="-160" type="line" smooth="no"/>
      <point x="0" y="-80" type="line" smooth="no"/>
      <point x="40" y="-120" type="line" smooth="no"/>
      <point x="0" y="-200" type="line" smooth="no"/>
      <point x="0" y="-240" type="line" smooth="no"/>
      <point x="80" y="-280" type="line" smooth="yes"/>
      <point x="120" y="-200" type="line" smooth="no"/>
      <point x="120" y="440" type="line" smooth="no"/>
    </contour>
    <contour>
      <point x="160" y="600" type="line" smooth="no"/>
      <point x="80" y="640" type="line" smooth="no"/>
      <point x="80" y="680" type="line" smooth="no"/>
      <point x="120" y="760" type="line" smooth="no"/>
      <point x="160" y="760" type="line" smooth="no"/>
      <point x="240" y="720" type="line" smooth="no"/>
      <point x="240" y="680" type="line" smooth="no"/>
      <point x="200" y="600" type="line" smooth="no"/>
    </contour>
  </outline>
</glyph>
<glyph name="k" format="1">
  <advance width="16"/>
  <unicode hex="006B"/>
  <outline>
    <contour>
      <point x="1" y="19" type="line"/>
      <point x="6" y="21" type="line"/>
      <point x="6" y="7" type="line"/>
      <point x="11" y="12" type="line"/>
      <point x="9" y="14" type="line"/>
      <point x="15" y="14" type="line"/>
      <point x="13" y="12" type="line"/>
      <point x="10" y="9" type="line"/>
      <point x="15" y="2" type="line"/>
      <point x="16" y="0" type="line"/>
      <point x="13" y="0" type="line"/>
      <point x="12" y="1" type="line"/>
      <point x="8" y="7" type="line"/>
      <point x="6" y="5" type="line"/>
      <point x="6" y="2" type="line"/>
      <point x="8" y="0" type="line"/>
      <point x="1" y="0" type="line"/>
      <point x="3" y="2" type="line"/>
      <point x="3" y="18" type="line"/>
    </contour>
  </outline>
</glyph>
<glyph name="l" format="1">
  <advance width="9"/>
  <unicode hex="006C"/>
  <outline>
    <contour>
      <point x="1" y="19" type="line"/>
      <point x="6" y="21" type="line"/>
      <point x="6" y="2" type="line"/>
      <point x="8" y="0" type="line"/>
      <point x="1" y="0" type="line"/>
      <point x="3" y="2" type="line"/>
      <point x="3" y="18" type="line"/>
    </contour>
  </outline>
</glyph>
<glyph name="m" format="1">
  <advance width="1040"/>
  <unicode hex="006d"/>
  <outline>
    <contour>
      <point x="0" y="0" type="line" smooth="no"/>
      <point x="80" y="80" type="line" smooth="no"/>
      <point x="80" y="440" type="line" smooth="no"/>
      <point x="0" y="480" type="line" smooth="no"/>
      <point x="200" y="560" type="line" smooth="no"/>
      <point x="200" y="560" type="line" smooth="no"/>
      <point x="200" y="440" type="line" smooth="no"/>
      <point x="280" y="520" type="line" smooth="no"/>
      <point x="360" y="560" type="line" smooth="no"/>
      <point x="520" y="520" type="line" smooth="no"/>
      <point x="560" y="440" type="line" smooth="no"/>
      <point x="640" y="520" type="line" smooth="no"/>
      <point x="720" y="560" type="line" smooth="no"/>
      <point x="880" y="520" type="line" smooth="no"/>
      <point x="920" y="440" type="line" smooth="no"/>
      <point x="920" y="80" type="line" smooth="no"/>
      <point x="1000" y="0" type="line" smooth="no"/>
      <point x="720" y="0" type="line" smooth="no"/>
      <point x="800" y="80" type="line" smooth="no"/>
      <point x="800" y="440" type="line" smooth="no"/>
      <point x="760" y="480" type="line" smooth="no"/>
      <point x="680" y="480" type="line" smooth="no"/>
      <point x="560" y="360" type="line" smooth="no"/>
      <point x="560" y="80" type="line" smooth="no"/>
      <point x="640" y="0" type="line" smooth="no"/>
      <point x="360" y="0" type="line" smooth="no"/>
      <point x="360" y="0" type="line" smooth="no"/>
      <point x="360.25" y="0" type="line" smooth="no"/>
      <point x="440" y="80" type="line" smooth="no"/>
      <point x="440" y="80" type="line" smooth="no"/>
      <point x="440" y="440" type="line" smooth="no"/>
      <point x="400" y="480" type="line" smooth="no"/>
      <point x="320" y="480" type="line" smooth="no"/>
      <point x="200" y="360" type="line" smooth="no"/>
      <point x="200" y="80" type="line" smooth="no"/>
      <point x="280" y="0" type="line" smooth="no"/>
    </contour>
  </outline>
</glyph>
<glyph name="n" format="1">
  <advance width="17"/>
  <unicode hex="006E"/>
  <outline>
    <contour>
      <point x="1" y="0" type="line"/>
      <point x="3" y="2" type="line"/>
      <point x="3" y="12" type="line"/>
      <point x="1" y="13" type="line"/>
      <point x="5" y="15" type="line"/>
      <point x="6" y="12" type="line"/>
      <point x="8" y="14" type="line"/>
      <point x="10" y="15" type="line"/>
      <point x="14" y="14" type="line"/>
      <point x="15" y="12" type="line"/>
      <point x="15" y="2" type="line"/>
      <point x="17" y="0" type="line"/>
      <point x="10" y="0" type="line"/>
      <point x="12" y="2" type="line"/>
      <point x="12" y="12" type="line"/>
      <point x="11" y="13" type="line"/>
      <point x="9" y="13" type="line"/>
      <point x="6" y="10" type="line"/>
      <point x="6" y="2" type="line"/>
      <point x="8" y="0" type="line"/>
    </contour>
  </outline>
</glyph>
<glyph name="p" format="1">
  <advance width="17"/>
  <unicode hex="0070"/>
  <outline>
    <contour>
      <point x="10" y="15" type="line"/>
      <point x="13" y="14" type="line"/>
      <point x="15" y="10" type="line"/>
      <point x="15" y="5" type="line"/>
      <point x="13" y="1" type="line"/>
      <point x="10" y="0" type="line"/>
      <point x="8" y="0" type="line"/>
      <point x="6" y="1" type="line"/>
      <point x="6" y="-6" type="line"/>
      <point x="8" y="-8" type="line"/>
      <point x="1" y="-8" type="line"/>
      <point x="3" y="-6" type="line"/>
      <point x="3" y="12" type="line"/>
      <point x="1" y="13" type="line"/>
      <point x="5" y="15" type="line"/>
      <point x="6" y="13" type="line"/>
      <point x="8" y="15" type="line"/>
    </contour>
    <contour>
      <point x="9" y="14" type="line"/>
      <point x="6" y="11" type="line"/>
      <point x="6" y="4" type="line"/>
      <point x="7" y="2" type="line"/>
      <point x="9" y="1" type="line"/>
      <point x="11" y="2" type="line"/>
      <point x="12" y="8" type="line"/>
      <point x="11" y="13" type="line"/>
    </contour>
  </outline>
</glyph>
<glyph name="q" format="1">
  <advance width="1000"/>
  <unicode hex="0071"/>
  <outline>
    <contour>
      <point x="560.167" y="560.002" type="line" smooth="no"/>
      <point x="480.167" y="480.002" type="line" smooth="no"/>
      <point x="480.167" y="-239.998" type="line" smooth="no"/>
      <point x="560.167" y="-319.998" type="line" smooth="no"/>
      <point x="280.167" y="-319.998" type="line" smooth="no"/>
      <point x="360.167" y="-239.998" type="line" smooth="no"/>
      <point x="360.167" y="26.752" type="line" smooth="no"/>
      <point x="280.167" y="0.00195312" type="line" smooth="no"/>
      <point x="200.167" y="0.00195312" type="line" smooth="no"/>
      <point x="80.167" y="40.002" type="line" smooth="no"/>
      <point x="0.166992" y="200.002" type="line" smooth="no"/>
      <point x="0.166992" y="360.002" type="line" smooth="no"/>
      <point x="80.167" y="520.002" type="line" smooth="no"/>
      <point x="200.167" y="560.002" type="line" smooth="no"/>
      <point x="280.167" y="560.002" type="line" smooth="no"/>
      <point x="400.167" y="519.947" type="line" smooth="no"/>
      <point x="480.167" y="559.947" type="line" smooth="no"/>
    </contour>
    <contour>
      <point x="240.167" y="520.002" type="line" smooth="no"/>
      <point x="160.167" y="480.002" type="line" smooth="no"/>
      <point x="120.167" y="280.002" type="line" smooth="no"/>
      <point x="160.167" y="80.002" type="line" smooth="no"/>
      <point x="240.167" y="40.002" type="line" smooth="no"/>
      <point x="320.167" y="80.002" type="line" smooth="no"/>
      <point x="360.167" y="159.947" type="line" smooth="no"/>
      <point x="360.167" y="399.947" type="line" smooth="no"/>
      <point x="320.167" y="480.002" type="line" smooth="no"/>
    </contour>
  </outline>
</glyph>
<glyph name="r" format="1">
  <advance width="560"/>
  <unicode hex="0072"/>
  <outline>
    <contour>
      <point x="200" y="560" type="line" smooth="no"/>
      <point x="200" y="400" type="line" smooth="no"/>
      <point x="200" y="400" type="line" smooth="no"/>
      <point x="280" y="520" type="line" smooth="no"/>
      <point x="360" y="560" type="line" smooth="no"/>
      <point x="440" y="520" type="line" smooth="no"/>
      <point x="480" y="440" type="line" smooth="no"/>
      <point x="360" y="360" type="line" smooth="no"/>
      <point x="320" y="440" type="line" smooth="no"/>
      <point x="280" y="440" type="line" smooth="no"/>
      <point x="200" y="320" type="line" smooth="no"/>
      <point x="200" y="80" type="line" smooth="no"/>
      <point x="280" y="0" type="line" smooth="no"/>
      <point x="0" y="0" type="line" smooth="no"/>
      <point x="80" y="80" type="line" smooth="no"/>
      <point x="80" y="440" type="line" smooth="no"/>
      <point x="0" y="480" type="line" smooth="no"/>
    </contour>
  </outline>
</glyph>
<glyph name="s" format="1">
  <advance width="13"/>
  <unicode hex="0073"/>
  <outline>
    <contour>
      <point x="9" y="11" type="line"/>
      <point x="8" y="14" type="line"/>
      <point x="6" y="14" type="line"/>
      <point x="4" y="13" type="line"/>
      <point x="4" y="11" type="line"/>
      <point x="11" y="7" type="line"/>
      <point x="12" y="5" type="line"/>
      <point x="10" y="1" type="line"/>
      <point x="6" y="0" type="line"/>
      <point x="5" y="0" type="line"/>
      <point x="2" y="1" type="line"/>
      <point x="0" y="3" type="line"/>
      <point x="2" y="5" type="line"/>
      <point x="3" y="2" type="line"/>
      <point x="5" y="1" type="line"/>
      <point x="8" y="2" type="line"/>
      <point x="9" y="3" type="line"/>
      <point x="9" y="4" type="line"/>
      <point x="2" y="9" type="line"/>
      <point x="1" y="11" type="line"/>
      <point x="2" y="14" type="line"/>
      <point x="5" y="15" type="line"/>
      <point x="9" y="15" type="line"/>
      <point x="11" y="13" type="line"/>
    </contour>
  </outline>
</glyph>
<glyph name="t" format="1">
  <advance width="10"/>
  <unicode hex="0074"/>
  <outline>
    <contour>
      <point x="6" y="18" type="line"/>
      <point x="6" y="14" type="line"/>
      <point x="8" y="14" type="line"/>
      <point x="8" y="13" type="line"/>
      <point x="6" y="13" type="line"/>
      <point x="6" y="2" type="line"/>
      <point x="7" y="1" type="line"/>
      <point x="8" y="3" type="line"/>
      <point x="9" y="2" type="line"/>
      <point x="8" y="0" type="line"/>
      <point x="5" y="0" type="line"/>
      <point x="3" y="2" type="line"/>
      <point x="3" y="13" type="line"/>
      <point x="1" y="13" type="line"/>
      <point x="1" y="14" type="line"/>
      <point x="3" y="15" type="line"/>
      <point x="4" y="16" type="line"/>
      <point x="5" y="18" type="line"/>
    </contour>
  </outline>
</glyph>
<glyph name="u" format="1">
  <advance width="600"/>
  <unicode hex="0075"/>
  <outline>
    <contour>
      <point x="560" y="40" type="line" smooth="no"/>
      <point x="440" y="0" type="line" smooth="no"/>
      <point x="360" y="80" type="line" smooth="no"/>
      <point x="360" y="80" type="line" smooth="no"/>
      <point x="320" y="40" type="line" smooth="no"/>
      <point x="240" y="0" type="line" smooth="no"/>
      <point x="200" y="0" type="line" smooth="no"/>
      <point x="80" y="40" type="line" smooth="no"/>
      <point x="40" y="120" type="line" smooth="no"/>
      <point x="40" y="480" type="line" smooth="no"/>
      <point x="0" y="520" type="line" smooth="no"/>
      <point x="160" y="560" type="line" smooth="no"/>
      <point x="160" y="120" type="line" smooth="no"/>
      <point x="200" y="80" type="line" smooth="no"/>
      <point x="280" y="80" type="line" smooth="no"/>
      <point x="320" y="120" type="line" smooth="no"/>
      <point x="360" y="200" type="line" smooth="no"/>
      <point x="360" y="480" type="line" smooth="no"/>
      <point x="320" y="520" type="line" smooth="no"/>
      <point x="480" y="560" type="line" smooth="no"/>
      <point x="480" y="80" type="line" smooth="no"/>
      <point x="560" y="80" type="line" smooth="no"/>
    </contour>
  </outline>
</glyph>
<glyph name="v" format="1">
  <advance width="640"/>
  <unicode hex="0076"/>
  <outline>
    <contour>
      <point x="320" y="0" type="line" smooth="no"/>
      <point x="240" y="0" type="line" smooth="no"/>
      <point x="80" y="480" type="line" smooth="no"/>
      <point x="0" y="560" type="line" smooth="no"/>
      <point x="280" y="560" type="line" smooth="no"/>
      <point x="200" y="480" type="line" smooth="no"/>
      <point x="320" y="120" type="line" smooth="no"/>
      <point x="440" y="480" type="line" smooth="no"/>
      <point x="360" y="560" type="line" smooth="no"/>
      <point x="600" y="560" type="line" smooth="no"/>
      <point x="520" y="480" type="line" smooth="no"/>
      <point x="360" y="80" type="line" smooth="no"/>
    </contour>
  </outline>
</glyph>
<glyph name="w" format="1">
  <advance width="23"/>
  <unicode hex="0077"/>
  <outline>
    <contour>
      <point x="11" y="8" type="line"/>
      <point x="9" y="2" type="line"/>
      <point x="8" y="0" type="line"/>
      <point x="6" y="0" type="line"/>
      <point x="2" y="12" type="line"/>
      <point x="0" y="14" type="line"/>
      <point x="7" y="14" type="line"/>
      <point x="5" y="12" type="line"/>
      <point x="8" y="3" type="line"/>
      <point x="11" y="12" type="line"/>
      <point x="13" y="13" type="line"/>
      <point x="16" y="3" type="line"/>
      <point x="19" y="12" type="line"/>
      <point x="17" y="14" type="line"/>
      <point x="23" y="14" type="line"/>
      <point x="21" y="12" type="line"/>
      <point x="17" y="2" type="line"/>
      <point x="16" y="0" type="line"/>
      <point x="14" y="0" type="line"/>
    </contour>
  </outline>
</glyph>
<glyph name="x" format="1">
  <advance width="676"/>
  <unicode hex="0078"/>
  <outline>
    <contour>
      <point x="520" y="80" type="line" smooth="no"/>
      <point x="600" y="0" type="line" smooth="no"/>
      <point x="320" y="0" type="line" smooth="no"/>
      <point x="400" y="78" type="line" smooth="no"/>
      <point x="280" y="240" type="line" smooth="no"/>
      <point x="160" y="80" type="line" smooth="no"/>
      <point x="232" y="0" type="line" smooth="no"/>
      <point x="0" y="0" type="line" smooth="no"/>
      <point x="80" y="78" type="line" smooth="no"/>
      <point x="240" y="280" type="line" smooth="no"/>
      <point x="80" y="480" type="line" smooth="no"/>
      <point x="0" y="560" type="line" smooth="no"/>
      <point x="280" y="560" type="line" smooth="no"/>
      <point x="200" y="480" type="line" smooth="no"/>
      <point x="320" y="318" type="line" smooth="no"/>
      <point x="440" y="480" type="line" smooth="no"/>
      <point x="360" y="560" type="line" smooth="no"/>
      <point x="600" y="560" type="line" smooth="no"/>
      <point x="520" y="480" type="line" smooth="no"/>
      <point x="360" y="278" type="line" smooth="no"/>
    </contour>
  </outline>
</glyph>
<glyph name="y" format="1">
  <advance width="14"/>
  <unicode hex="0079"/>
  <outline>
    <contour>
      <point x="6" y="0" type="line"/>
      <point x="2" y="12" type="line"/>
      <point x="0" y="14" type="line"/>
      <point x="7" y="14" type="line"/>
      <point x="5" y="12" type="line"/>
      <point x="8" y="3" type="line"/>
      <point x="11" y="12" type="line"/>
      <point x="9" y="14" type="line"/>
      <point x="14" y="14" type="line"/>
      <point x="13" y="12" type="line"/>
      <point x="5" y="-8" type="line"/>
      <point x="3" y="-7" type="line"/>
    </contour>
  </outline>
</glyph>
<glyph name="z" format="1">
  <advance width="14"/>
  <unicode hex="007A"/>
  <outline>
    <contour>
      <point x="5" y="1" type="line"/>
      <point x="10" y="1" type="line"/>
      <point x="12" y="4" type="line"/>
      <point x="13" y="4" type="line"/>
      <point x="13" y="0" type="line"/>
      <point x="1" y="0" type="line"/>
      <point x="1" y="1" type="line"/>
      <point x="9" y="13" type="line"/>
      <point x="5" y="13" type="line"/>
      <point x="3" y="10" type="line"/>
      <point x="2" y="10" type="line"/>
      <point x="2" y="14" type="line"/>
      <point x="13" y="14" type="line"/>
      <point x="5" y="2" type="line"/>
    </contour>
  </outline>
</glyph>
<glyph name="uni007F" format="1">
  <advance width="1000"/>
  <unicode hex="007f"/>
  <outline>
    <contour>
      <point x="440" y="120" type="line" smooth="no"/>
      <point x="440" y="160" type="line" smooth="no"/>
      <point x="480" y="160" type="line" smooth="no"/>
      <point x="480" y="120" type="line" smooth="no"/>
    </contour>
    <contour>
      <point x="400" y="80" type="line" smooth="no"/>
      <point x="400" y="120" type="line" smooth="no"/>
      <point x="440" y="120" type="line" smooth="no"/>
      <point x="440" y="80" type="line" smooth="no"/>
    </contour>
    <contour>
      <point x="360" y="40" type="line" smooth="no"/>
      <point x="360" y="80" type="line" smooth="no"/>
      <point x="400" y="80" type="line" smooth="no"/>
      <point x="400" y="40" type="line" smooth="no"/>
    </contour>
    <contour>
      <point x="320" y="0" type="line" smooth="no"/>
      <point x="320" y="40" type="line" smooth="no"/>
      <point x="360" y="40" type="line" smooth="no"/>
      <point x="360" y="0" type="line" smooth="no"/>
    </contour>
    <contour>
      <point x="280" y="-40" type="line" smooth="no"/>
      <point x="280" y="0" type="line" smooth="no"/>
      <point x="320" y="0" type="line" smooth="no"/>
      <point x="320" y="-40" type="line" smooth="no"/>
    </contour>
    <contour>
      <point x="200" y="-120" type="line" smooth="no"/>
      <point x="200" y="-80" type="line" smooth="no"/>
      <point x="240" y="-80" type="line" smooth="no"/>
      <point x="240" y="-120" type="line" smooth="no"/>
    </contour>
    <contour>
      <point x="240" y="-80" type="line" smooth="no"/>
      <point x="240" y="-40" type="line" smooth="no"/>
      <point x="280" y="-40" type="line" smooth="no"/>
      <point x="280" y="-80" type="line" smooth="no"/>
    </contour>
    <contour>
      <point x="160" y="-160" type="line" smooth="no"/>
      <point x="160" y="-120" type="line" smooth="no"/>
      <point x="200" y="-120" type="line" smooth="no"/>
      <point x="200" y="-160" type="line" smooth="no"/>
    </contour>
    <contour>
      <point x="1000" y="680" type="line" smooth="no"/>
      <point x="1000" y="720" type="line" smooth="no"/>
      <point x="1040" y="720" type="line" smooth="no"/>
      <point x="1040" y="680" type="line" smooth="no"/>
    </contour>
    <contour>
      <point x="960" y="640" type="line" smooth="no"/>
      <point x="960" y="680" type="line" smooth="no"/>
      <point x="1000" y="680" type="line" smooth="no"/>
      <point x="1000" y="640" type="line" smooth="no"/>
    </contour>
    <contour>
      <point x="920" y="600" type="line" smooth="no"/>
      <point x="920" y="640" type="line" smooth="no"/>
      <point x="960" y="640" type="line" smooth="no"/>
      <point x="960" y="600" type="line" smooth="no"/>
    </contour>
    <contour>
      <point x="880" y="560" type="line" smooth="no"/>
      <point x="880" y="600" type="line" smooth="no"/>
      <point x="920" y="600" type="line" smooth="no"/>
      <point x="920" y="560" type="line" smooth="no"/>
    </contour>
    <contour>
      <point x="840" y="520" type="line" smooth="no"/>
      <point x="840" y="560" type="line" smooth="no"/>
      <point x="880" y="560" type="line" smooth="no"/>
      <point x="880" y="520" type="line" smooth="no"/>
    </contour>
    <contour>
      <point x="800" y="480" type="line" smooth="no"/>
      <point x="800" y="520" type="line" smooth="no"/>
      <point x="840" y="520" type="line" smooth="no"/>
      <point x="840" y="480" type="line" smooth="no"/>
    </contour>
    <contour>
      <point x="760" y="440" type="line" smooth="no"/>
      <point x="760" y="480" type="line" smooth="no"/>
      <point x="800" y="480" type="line" smooth="no"/>
      <point x="800" y="440" type="line" smooth="no"/>
    </contour>
    <contour>
      <point x="720" y="400" type="line" smooth="no"/>
      <point x="720" y="440" type="line" smooth="no"/>
      <point x="760" y="440" type="line" smooth="no"/>
      <point x="760" y="400" type="line" smooth="no"/>
    </contour>
    <contour>
      <point x="680" y="360" type="line" smooth="no"/>
      <point x="680" y="400" type="line" smooth="no"/>
      <point x="720" y="400" type="line" smooth="no"/>
      <point x="720" y="360" type="line" smooth="no"/>
    </contour>
    <contour>
      <point x="640" y="320" type="line" smooth="no"/>
      <point x="640" y="360" type="line" smooth="no"/>
      <point x="680" y="360" type="line" smooth="no"/>
      <point x="680" y="320" type="line" smooth="no"/>
    </contour>
    <contour>
      <point x="600" y="280" type="line" smooth="no"/>
      <point x="600" y="320" type="line" smooth="no"/>
      <point x="640" y="320" type="line" smooth="no"/>
      <point x="640" y="280" type="line" smooth="no"/>
    </contour>
    <contour>
      <point x="560" y="240" type="line" smooth="no"/>
      <point x="560" y="280" type="line" smooth="no"/>
      <point x="600" y="280" type="line" smooth="no"/>
      <point x="600" y="240" type="line" smooth="no"/>
    </contour>
    <contour>
      <point x="520" y="200" type="line" smooth="no"/>
      <point x="520" y="240" type="line" smooth="no"/>
      <point x="560" y="240" type="line" smooth="no"/>
      <point x="560" y="200" type="line" smooth="no"/>
    </contour>
    <contour>
      <point x="480" y="160" type="line" smooth="no"/>
      <point x="480" y="200" type="line" smooth="no"/>
      <point x="520" y="200" type="line" smooth="no"/>
      <point x="520" y="160" type="line" smooth="no"/>
    </contour>
    <contour>
      <point x="1120" y="800" type="line" smooth="no"/>
      <point x="1120" y="840" type="line" smooth="no"/>
      <point x="1160" y="840" type="line" smooth="no"/>
      <point x="1160" y="800" type="line" smooth="no"/>
    </contour>
    <contour>
      <point x="1080" y="760" type="line" smooth="no"/>
      <point x="1080" y="800" type="line" smooth="no"/>
      <point x="1120" y="800" type="line" smooth="no"/>
      <point x="1120" y="760" type="line" smooth="no"/>
    </contour>
    <contour>
      <point x="1040" y="720" type="line" smooth="no"/>
      <point x="1040" y="760" type="line" smooth="no"/>
      <point x="1080" y="760" type="line" smooth="no"/>
      <point x="1080" y="720" type="line" smooth="no"/>
    </contour>
    <contour>
      <point x="120" y="-200" type="line" smooth="no"/>
      <point x="120" y="-160" type="line" smooth="no"/>
      <point x="160" y="-160" type="line" smooth="no"/>
      <point x="160" y="-200" type="line" smooth="no"/>
    </contour>
    <contour>
      <point x="80" y="-240" type="line" smooth="no"/>
      <point x="80" y="-200" type="line" smooth="no"/>
      <point x="120" y="-200" type="line" smooth="no"/>
      <point x="120" y="-240" type="line" smooth="no"/>
    </contour>
    <contour>
      <point x="40" y="-280" type="line" smooth="no"/>
      <point x="40" y="-240" type="line" smooth="no"/>
      <point x="80" y="-240" type="line" smooth="no"/>
      <point x="80" y="-280" type="line" smooth="no"/>
    </contour>
    <contour>
      <point x="0" y="-320" type="line" smooth="no"/>
      <point x="0" y="-280" type="line" smooth="no"/>
      <point x="40" y="-280" type="line" smooth="no"/>
      <point x="40" y="-320" type="line" smooth="no"/>
    </contour>
  </outline>
</glyph>
<glyph name="agrave" format="1">
  <advance width="520"/>
  <unicode hex="00e0"/>
  <outline>
    <contour>
      <point x="320" y="600" type="line" smooth="no"/>
      <point x="280" y="600" type="line" smooth="no"/>
      <point x="80" y="680" type="line" smooth="no"/>
      <point x="80" y="720" type="line" smooth="no"/>
      <point x="120" y="760" type="line" smooth="no"/>
      <point x="160" y="760" type="line" smooth="no"/>
    </contour>
    <contour>
      <point x="120" y="560" type="line" smooth="no"/>
      <point x="240" y="560" type="line" smooth="no"/>
      <point x="400" y="480" type="line" smooth="no"/>
      <point x="400" y="80" type="line" smooth="no"/>
      <point x="480" y="80" type="line" smooth="no"/>
      <point x="480" y="40" type="line" smooth="no"/>
      <point x="360" y="0" type="line" smooth="no"/>
      <point x="280" y="80" type="line" smooth="no"/>
      <point x="240" y="40" type="line" smooth="no"/>
      <point x="120" y="0" type="line" smooth="no"/>
      <point x="80" y="0" type="line" smooth="no"/>
      <point x="0" y="160" type="line" smooth="no"/>
      <point x="0" y="280" type="line" smooth="no"/>
      <point x="280" y="360" type="line" smooth="no"/>
      <point x="280" y="440" type="line" smooth="no"/>
      <point x="240" y="520" type="line" smooth="no"/>
      <point x="120" y="480" type="line" smooth="no"/>
      <point x="80" y="400" type="line" smooth="no"/>
      <point x="0" y="480" type="line" smooth="no"/>
    </contour>
    <contour>
      <point x="280" y="320" type="line" smooth="no"/>
      <point x="120" y="240" type="line" smooth="no"/>
      <point x="120" y="160" type="line" smooth="no"/>
      <point x="160" y="80" type="line" smooth="no"/>
      <point x="200" y="80" type="line" smooth="no"/>
      <point x="280" y="160" type="line" smooth="no"/>
    </contour>
  </outline>
</glyph>
<glyph name="atilde" format="1">
  <advance width="14"/>
  <unicode hex="00E3"/>
  <outline>
    <contour>
      <point x="9" y="17" type="line"/>
      <point x="11" y="18" type="line"/>
      <point x="12" y="17" type="line"/>
      <point x="10" y="16" type="line"/>
      <point x="8" y="16" type="line"/>
      <point x="6" y="17" type="line"/>
      <point x="4" y="16" type="line"/>
      <point x="3" y="17" type="line"/>
      <point x="5" y="18" type="line"/>
      <point x="7" y="18" type="line"/>
    </contour>
    <contour>
      <point x="5" y="15" type="line"/>
      <point x="8" y="15" type="line"/>
      <point x="12" y="13" type="line"/>
      <point x="12" y="2" type="line"/>
      <point x="14" y="2" type="line"/>
      <point x="14" y="1" type="line"/>
      <point x="11" y="0" type="line"/>
      <point x="9" y="2" type="line"/>
      <point x="8" y="1" type="line"/>
      <point x="5" y="0" type="line"/>
      <point x="4" y="0" type="line"/>
      <point x="2" y="4" type="line"/>
      <point x="2" y="8" type="line"/>
      <point x="9" y="10" type="line"/>
      <point x="9" y="12" type="line"/>
      <point x="8" y="14" type="line"/>
      <point x="5" y="13" type="line"/>
      <point x="4" y="11" type="line"/>
      <point x="2" y="13" type="line"/>
    </contour>
    <contour>
      <point x="9" y="9" type="line"/>
      <point x="5" y="7" type="line"/>
      <point x="5" y="4" type="line"/>
      <point x="6" y="2" type="line"/>
      <point x="7" y="2" type="line"/>
      <point x="9" y="4" type="line"/>
    </contour>
  </outline>
</glyph>
<glyph name="ae" format="1">
  <advance width="22"/>
  <unicode hex="00E6"/>
  <outline>
    <contour>
      <point x="5" y="15" type="line"/>
      <point x="8" y="15" type="line"/>
      <point x="11" y="14" type="line"/>
      <point x="14" y="15" type="line"/>
      <point x="16" y="15" type="line"/>
      <point x="19" y="14" type="line"/>
      <point x="21" y="10" type="line"/>
      <point x="20" y="8" type="line"/>
      <point x="12" y="7" type="line"/>
      <point x="13" y="2" type="line"/>
      <point x="16" y="1" type="line"/>
      <point x="18" y="2" type="line"/>
      <point x="19" y="4" type="line"/>
      <point x="21" y="3" type="line"/>
      <point x="19" y="1" type="line"/>
      <point x="17" y="0" type="line"/>
      <point x="14" y="0" type="line"/>
      <point x="11" y="1" type="line"/>
      <point x="10" y="2" type="line"/>
      <point x="9" y="1" type="line"/>
      <point x="5" y="0" type="line"/>
      <point x="4" y="0" type="line"/>
      <point x="2" y="4" type="line"/>
      <point x="2" y="8" type="line"/>
      <point x="9" y="10" type="line"/>
      <point x="9" y="12" type="line"/>
      <point x="8" y="14" type="line"/>
      <point x="5" y="13" type="line"/>
      <point x="4" y="11" type="line"/>
      <point x="2" y="13" type="line"/>
    </contour>
    <contour>
      <point x="15" y="14" type="line"/>
      <point x="13" y="13" type="line"/>
      <point x="12" y="8" type="line"/>
      <point x="17" y="9" type="line"/>
      <point x="17" y="13" type="line"/>
    </contour>
    <contour>
      <point x="9" y="9" type="line"/>
      <point x="5" y="7" type="line"/>
      <point x="5" y="4" type="line"/>
      <point x="6" y="2" type="line"/>
      <point x="7" y="2" type="line"/>
      <point x="9" y="4" type="line"/>
      <point x="9" y="6" type="line"/>
    </contour>
  </outline>
</glyph>
<glyph name="ccedilla" format="1">
  <advance width="14"/>
  <unicode hex="00E7"/>
  <outline>
    <contour>
      <point x="7" y="-1" type="line"/>
      <point x="9" y="-1" type="line"/>
      <point x="10" y="-2" type="line"/>
      <point x="9" y="-4" type="line"/>
      <point x="7" y="-5" type="line"/>
      <point x="6" y="-4" type="line"/>
      <point x="6" y="-3" type="line"/>
      <point x="7" y="-4" type="line"/>
      <point x="8" y="-3" type="line"/>
      <point x="8" y="-2" type="line"/>
      <point x="6" y="-2" type="line"/>
      <point x="7" y="0" type="line"/>
      <point x="7" y="0"/>
      <point x="4" y="1"/>
      <point x="4" y="1" type="curve"/>
      <point x="2" y="5" type="line"/>
      <point x="2" y="10" type="line"/>
      <point x="4" y="14" type="line"/>
      <point x="7" y="15" type="line"/>
      <point x="9" y="15" type="line"/>
      <point x="12" y="14" type="line"/>
      <point x="13" y="12" type="line"/>
      <point x="11" y="10" type="line"/>
      <point x="10" y="13" type="line"/>
      <point x="8" y="14" type="line"/>
      <point x="6" y="13" type="line"/>
      <point x="5" y="9" type="line"/>
      <point x="5" y="6" type="line"/>
      <point x="6" y="2" type="line"/>
      <point x="9" y="1" type="line"/>
      <point x="11" y="2" type="line"/>
      <point x="12" y="4" type="line"/>
      <point x="14" y="3" type="line"/>
      <point x="12" y="1" type="line"/>
      <point x="10" y="0" type="line"/>
      <point x="10" y="0"/>
      <point x="8" y="0"/>
      <point x="8" y="0" type="curve"/>
    </contour>
  </outline>
</glyph>
<glyph name="eacute" format="1">
  <advance width="520"/>
  <unicode hex="00e9"/>
  <outline>
    <contour>
      <point x="160" y="600" type="line" smooth="no"/>
      <point x="200" y="600" type="line" smooth="no"/>
      <point x="400" y="680" type="line" smooth="no"/>
      <point x="400" y="720" type="line" smooth="no"/>
      <point x="360" y="760" type="line" smooth="no"/>
      <point x="320" y="760" type="line" smooth="no"/>
    </contour>
    <contour>
      <point x="200" y="560" type="line" smooth="no"/>
      <point x="280" y="560" type="line" smooth="no"/>
      <point x="400" y="520" type="line" smooth="no"/>
      <point x="480" y="360" type="line" smooth="no"/>
      <point x="440" y="280" type="line" smooth="no"/>
      <point x="120" y="240" type="line" smooth="no"/>
      <point x="160" y="80" type="line" smooth="no"/>
      <point x="280" y="40" type="line" smooth="no"/>
      <point x="360" y="80" type="line" smooth="no"/>
      <point x="400" y="160" type="line" smooth="no"/>
      <point x="480" y="120" type="line" smooth="no"/>
      <point x="400" y="40" type="line" smooth="no"/>
      <point x="320" y="0" type="line" smooth="no"/>
      <point x="200" y="0" type="line" smooth="no"/>
      <point x="80" y="40" type="line" smooth="no"/>
      <point x="0" y="200" type="line" smooth="no"/>
      <point x="0" y="360" type="line" smooth="no"/>
      <point x="80" y="520" type="line" smooth="no"/>
    </contour>
    <contour>
      <point x="240" y="520" type="line" smooth="no"/>
      <point x="160" y="480" type="line" smooth="no"/>
      <point x="120" y="280" type="line" smooth="no"/>
      <point x="320" y="320" type="line" smooth="no"/>
      <point x="320" y="480" type="line" smooth="no"/>
    </contour>
  </outline>
</glyph>
<glyph name="edieresis" format="1">
  <advance width="490"/>
  <unicode hex="00eb"/>
  <outline>
    <contour>
      <point x="200" y="560" type="line" smooth="no"/>
      <point x="280" y="560" type="line" smooth="no"/>
      <point x="400" y="520" type="line" smooth="no"/>
      <point x="480" y="360" type="line" smooth="no"/>
      <point x="440" y="280" type="line" smooth="no"/>
      <point x="120" y="239.945" type="line" smooth="no"/>
      <point x="160" y="80" type="line" smooth="no"/>
      <point x="280" y="40" type="line" smooth="no"/>
      <point x="360" y="80" type="line" smooth="no"/>
      <point x="400" y="160" type="line" smooth="no"/>
      <point x="480" y="120" type="line" smooth="no"/>
      <point x="400" y="40" type="line" smooth="no"/>
      <point x="320" y="0" type="line" smooth="no"/>
      <point x="200" y="0" type="line" smooth="no"/>
      <point x="80" y="40" type="line" smooth="no"/>
      <point x="0" y="200" type="line" smooth="no"/>
      <point x="0" y="360" type="line" smooth="no"/>
      <point x="80" y="520" type="line" smooth="no"/>
    </contour>
    <contour>
      <point x="240" y="520" type="line" smooth="no"/>
      <point x="160" y="480" type="line" smooth="no"/>
      <point x="120" y="279.945" type="line" smooth="no"/>
      <point x="320" y="320" type="line" smooth="no"/>
      <point x="320" y="480" type="line" smooth="no"/>
    </contour>
    <contour>
      <point x="360" y="720.031" type="line" smooth="no"/>
      <point x="400" y="680.062" type="line" smooth="no"/>
      <point x="400" y="640.062" type="line" smooth="no"/>
      <point x="360" y="600.031" type="line" smooth="no"/>
      <point x="280" y="600.031" type="line" smooth="no"/>
      <point x="280" y="680.031" type="line" smooth="no"/>
      <point x="320" y="720.031" type="line" smooth="no"/>
    </contour>
    <contour>
      <point x="159.438" y="720.219" type="line" smooth="no"/>
      <point x="199.812" y="680.586" type="line" smooth="no"/>
      <point x="200.562" y="600.594" type="line" smooth="no"/>
      <point x="120.562" y="599.852" type="line" smooth="no"/>
      <point x="80.1875" y="639.445" type="line" smooth="no"/>
      <point x="79.8125" y="679.445" type="line" smooth="no"/>
      <point x="119.438" y="719.844" type="line" smooth="no"/>
    </contour>
  </outline>
</glyph>
<glyph name="igrave" format="1">
  <advance width="320"/>
  <unicode hex="00ec"/>
  <outline>
    <contour>
      <point x="200" y="600" type="line" smooth="no"/>
      <point x="160" y="600" type="line" smooth="no"/>
      <point x="0" y="680" type="line" smooth="no"/>
      <point x="0" y="720" type="line" smooth="no"/>
      <point x="40" y="760" type="line" smooth="no"/>
      <point x="80" y="760" type="line" smooth="no"/>
    </contour>
    <contour>
      <point x="0" y="480" type="line" smooth="no"/>
      <point x="200" y="560" type="line" smooth="no"/>
      <point x="200" y="80" type="line" smooth="no"/>
      <point x="280" y="0" type="line" smooth="no"/>
      <point x="0" y="0" type="line" smooth="no"/>
      <point x="80" y="80" type="line" smooth="no"/>
      <point x="80" y="440" type="line" smooth="no"/>
    </contour>
  </outline>
</glyph>
<glyph name="icircumflex" format="1">
  <advance width="9"/>
  <unicode hex="00EE"/>
  <outline>
    <contour>
      <point x="0" y="16" type="line"/>
      <point x="3" y="20" type="line"/>
      <point x="5" y="20" type="line"/>
      <point x="8" y="16" type="line"/>
      <point x="7" y="16" type="line"/>
      <point x="4" y="18" type="line"/>
      <point x="1" y="16" type="line"/>
    </contour>
    <contour>
      <point x="1" y="13" type="line"/>
      <point x="6" y="15" type="line"/>
      <point x="6" y="2" type="line"/>
      <point x="8" y="0" type="line"/>
      <point x="1" y="0" type="line"/>
      <point x="3" y="2" type="line"/>
      <point x="3" y="12" type="line"/>
    </contour>
  </outline>
</glyph>
<glyph name="idieresis" format="1">
  <advance width="9"/>
  <unicode hex="00EF"/>
  <outline>
    <contour>
      <point x="7" y="19" type="line"/>
      <point x="8" y="18" type="line"/>
      <point x="8" y="17" type="line"/>
      <point x="7" y="16" type="line"/>
      <point x="5" y="16" type="line"/>
      <point x="5" y="18" type="line"/>
      <point x="6" y="19" type="line"/>
    </contour>
    <contour>
      <point x="2" y="19" type="line"/>
      <point x="3" y="18" type="line"/>
      <point x="3" y="16" type="line"/>
      <point x="1" y="16" type="line"/>
      <point x="0" y="17" type="line"/>
      <point x="0" y="18" type="line"/>
      <point x="1" y="19" type="line"/>
    </contour>
    <contour>
      <point x="1" y="13" type="line"/>
      <point x="6" y="15" type="line"/>
      <point x="6" y="2" type="line"/>
      <point x="8" y="0" type="line"/>
      <point x="1" y="0" type="line"/>
      <point x="3" y="2" type="line"/>
      <point x="3" y="12" type="line"/>
    </contour>
  </outline>
</glyph>
<glyph name=".notdef" format="1">
  <advance width="9"/>
  <outline>
    <contour>
      <point x="1" y="0" type="line"/>
      <point x="1" y="17" type="line"/>
      <point x="7" y="17" type="line"/>
      <point x="7" y="0" type="line"/>
    </contour>
    <contour>
      <point x="2" y="1" type="line"/>
      <point x="6" y="1" type="line"/>
      <point x="6" y="16" type="line"/>
      <point x="2" y="16" type="line"/>
    </contour>
  </outline>
</glyph>
